<svg width="764" height="515" viewBox="0 0 764 515" fill="none" xmlns="http://www.w3.org/2000/svg">
<g clip-path="url(#clip0)">
<path d="M761.907 372.022C761.907 402.557 593.768 515 383.78 515C173.791 515 8.49512 395.172 8.49512 364.638C8.49512 334.103 173.791 404.408 383.78 404.408C593.768 404.408 761.907 341.459 761.907 372.022Z" fill="#3F3D56"/>
<path d="M763.992 359.834C763.992 360.24 763.992 360.646 763.992 361.059C763.531 373.749 756.461 386.37 743.56 395.283C729.874 404.725 711.521 409.693 692.679 412.866C689.732 413.361 686.772 413.809 683.819 414.242C682.311 414.449 680.811 414.655 679.317 414.848C637.371 420.353 594.545 421.406 551.918 422.418C507.329 423.519 462.699 424.606 418.062 425.171L409.209 425.274C341.482 426.003 273.783 425.391 206.304 421.551C185.363 420.367 164.214 418.798 143.452 416.155C140.492 415.793 137.541 415.396 134.599 414.965C107.062 411.021 80.3445 404.972 56.002 395.152C50.2556 392.859 44.6349 390.263 39.1633 387.375C23.8735 379.261 10.9794 369.001 4.59777 356.407C0.885511 349.023 -0.642911 340.734 0.191896 332.513C0.46493 329.524 0.978313 326.562 1.72707 323.656C3.64641 316.465 6.57365 309.581 10.4218 303.21C20.3626 286.404 35.2944 271.34 48.1678 255.559C75.6494 221.927 93.5483 179.432 68.187 144.96C60.9104 135.057 50.3914 126.379 44.4641 116.022C41.2933 110.427 39.315 104.236 38.6538 97.84C38.3321 94.8993 38.2102 91.9402 38.289 88.983C38.5702 82.0774 39.4338 75.2078 40.8705 68.4474C45.0011 47.3062 52.7182 24.5134 76.5513 11.3276C92.8186 2.32612 113.554 -0.467937 134.578 0.0619688C137.529 0.130788 140.48 0.268425 143.431 0.474882C151.493 1.00479 159.506 1.98202 167.244 3.22764C215.047 10.8597 259.168 26.805 303.709 41.202C337.62 52.1579 372.743 62.4051 409.188 67.2912C412.135 67.6835 415.081 68.0482 418.041 68.3648C426.585 69.3008 435.203 69.9201 443.891 70.1748C487.131 71.4135 537.578 62.0541 566.292 37.7472C594.029 14.2524 646.045 12.3599 683.798 26.3921L684.363 26.6055C687.204 27.6882 689.957 28.8535 692.624 30.1015C720.443 43.1771 739.078 65.5708 741.708 89.0036C742.037 91.914 742.115 94.8473 741.942 97.7712C741.946 97.8009 741.946 97.8309 741.942 97.8606C740.138 126.689 716.567 150.899 692.631 175.151C689.671 178.145 686.703 181.138 683.771 184.153C676.005 192.122 668.481 200.153 661.955 208.418C658.975 212.165 656.234 216.095 653.749 220.186C651.465 223.96 649.514 227.925 647.918 232.037C646.235 236.294 645.153 240.764 644.703 245.319C644.032 251.848 645.226 258.434 648.145 264.313L648.207 264.451C654.596 277.113 668.116 286.087 683.771 294.043C686.655 295.516 689.622 296.947 692.631 298.365C709.607 306.375 727.898 313.815 741.804 323.704C745.553 326.31 749.052 329.259 752.255 332.513C753.559 333.862 754.79 335.279 755.945 336.759C761.022 343.172 763.848 351.078 763.985 359.256C763.992 359.462 763.992 359.648 763.992 359.834Z" fill="#007BFF"/>
<path d="M763.992 359.834C763.992 360.24 763.992 360.646 763.992 361.059C763.531 373.749 756.461 386.37 743.56 395.283C729.874 404.725 711.521 409.693 692.679 412.866C689.732 413.361 686.772 413.809 683.819 414.242C682.311 414.449 680.811 414.655 679.317 414.848C637.371 420.353 594.545 421.406 551.918 422.418C507.329 423.519 462.699 424.606 418.062 425.171L409.209 425.274C341.482 426.003 273.783 425.391 206.304 421.551C185.363 420.367 164.214 418.798 143.452 416.155C140.492 415.793 137.541 415.396 134.599 414.965C107.062 411.021 80.3445 404.972 56.002 395.152C50.2556 392.859 44.6349 390.263 39.1633 387.375C23.8735 379.261 10.9794 369.001 4.59777 356.407C0.885511 349.023 -0.642911 340.734 0.191896 332.513C0.46493 329.524 0.978313 326.562 1.72707 323.656C3.64641 316.465 6.57365 309.581 10.4218 303.21C20.3626 286.404 35.2944 271.34 48.1678 255.559C75.6494 221.927 93.5483 179.432 68.187 144.96C60.9104 135.057 50.3914 126.379 44.4641 116.022C41.2933 110.427 39.315 104.236 38.6538 97.84C38.3321 94.8993 38.2102 91.9402 38.289 88.983C38.5702 82.0774 39.4338 75.2078 40.8705 68.4474C45.0011 47.3062 52.7182 24.5134 76.5513 11.3276C92.8186 2.32612 113.554 -0.467937 134.578 0.0619688C137.529 0.130788 140.48 0.268425 143.431 0.474882C151.493 1.00479 159.506 1.98202 167.244 3.22764C215.047 10.8597 259.168 26.805 303.709 41.202C337.62 52.1579 372.743 62.4051 409.188 67.2912C412.135 67.6835 415.081 68.0482 418.041 68.3648C426.585 69.3008 435.203 69.9201 443.891 70.1748C487.131 71.4135 537.578 62.0541 566.292 37.7472C594.029 14.2524 646.045 12.3599 683.798 26.3921L684.363 26.6055C687.204 27.6882 689.957 28.8535 692.624 30.1015C720.443 43.1771 739.078 65.5708 741.708 89.0036C742.037 91.914 742.115 94.8473 741.942 97.7712C741.946 97.8009 741.946 97.8309 741.942 97.8606C740.138 126.689 716.567 150.899 692.631 175.151C689.671 178.145 686.703 181.138 683.771 184.153C676.005 192.122 668.481 200.153 661.955 208.418C658.975 212.165 656.234 216.095 653.749 220.186C651.465 223.96 649.514 227.925 647.918 232.037C646.235 236.294 645.153 240.764 644.703 245.319C644.032 251.848 645.226 258.434 648.145 264.313L648.207 264.451C654.596 277.113 668.116 286.087 683.771 294.043C686.655 295.516 689.622 296.947 692.631 298.365C709.607 306.375 727.898 313.815 741.804 323.704C745.553 326.31 749.052 329.259 752.255 332.513C753.559 333.862 754.79 335.279 755.945 336.759C761.022 343.172 763.848 351.078 763.985 359.256C763.992 359.462 763.992 359.648 763.992 359.834Z" fill="url(#paint0_linear)"/>
<path d="M692.659 30.1014V175.144C689.699 178.145 686.732 181.138 683.799 184.153V26.3921L692.659 30.1014Z" fill="#3F3D56"/>
<path d="M741.978 97.7709C741.981 97.8007 741.981 97.8307 741.978 97.8604H38.6548C38.3333 94.9197 38.2114 91.9606 38.2899 89.0034H741.744C742.073 91.9138 742.151 94.8471 741.978 97.7709Z" fill="#3F3D56"/>
<path d="M166.129 51.9998C167.555 51.9998 168.711 50.8444 168.711 49.4191C168.711 47.9938 167.555 46.8384 166.129 46.8384C164.703 46.8384 163.548 47.9938 163.548 49.4191C163.548 50.8444 164.703 51.9998 166.129 51.9998Z" fill="#E7EFFD"/>
<path d="M83.45 46.8314C84.8757 46.8314 86.0315 45.6759 86.0315 44.2506C86.0315 42.8253 84.8757 41.6699 83.45 41.6699C82.0242 41.6699 80.8684 42.8253 80.8684 44.2506C80.8684 45.6759 82.0242 46.8314 83.45 46.8314Z" fill="#E7EFFD"/>
<path d="M195.291 50.527C195.903 50.527 196.399 50.0309 196.399 49.419C196.399 48.8071 195.903 48.311 195.291 48.311C194.679 48.311 194.182 48.8071 194.182 49.419C194.182 50.0309 194.679 50.527 195.291 50.527Z" fill="#E7EFFD"/>
<path d="M112.24 47.946C112.852 47.946 113.348 47.4499 113.348 46.838C113.348 46.226 112.852 45.73 112.24 45.73C111.628 45.73 111.131 46.226 111.131 46.838C111.131 47.4499 111.628 47.946 112.24 47.946Z" fill="#E7EFFD"/>
<path d="M111.138 125.333C111.75 125.333 112.246 124.837 112.246 124.225C112.246 123.613 111.75 123.117 111.138 123.117C110.526 123.117 110.03 123.613 110.03 124.225C110.03 124.837 110.526 125.333 111.138 125.333Z" fill="#E7EFFD"/>
<path d="M622.337 66.8507C622.95 66.8507 623.446 66.3547 623.446 65.7428C623.446 65.1308 622.95 64.6348 622.337 64.6348C621.725 64.6348 621.229 65.1308 621.229 65.7428C621.229 66.3547 621.725 66.8507 622.337 66.8507Z" fill="#E7EFFD"/>
<path d="M246.963 67.8693C247.575 67.8693 248.072 67.3732 248.072 66.7613C248.072 66.1494 247.575 65.6533 246.963 65.6533C246.351 65.6533 245.855 66.1494 245.855 66.7613C245.855 67.3732 246.351 67.8693 246.963 67.8693Z" fill="#E7EFFD"/>
<path d="M567.711 65.6535C568.323 65.6535 568.82 65.1574 568.82 64.5455C568.82 63.9336 568.323 63.4375 567.711 63.4375C567.099 63.4375 566.603 63.9336 566.603 64.5455C566.603 65.1574 567.099 65.6535 567.711 65.6535Z" fill="#E7EFFD"/>
<path d="M707.233 68.9772C707.845 68.9772 708.341 68.4811 708.341 67.8692C708.341 67.2573 707.845 66.7612 707.233 66.7612C706.621 66.7612 706.125 67.2573 706.125 67.8692C706.125 68.4811 706.621 68.9772 707.233 68.9772Z" fill="#E7EFFD"/>
<path d="M763.993 359.834C763.993 360.24 763.993 360.646 763.993 361.059C763.642 373.845 756.558 386.597 743.561 395.571C729.875 405.013 711.522 409.982 692.68 413.155C689.733 413.65 686.773 414.097 683.82 414.531C682.312 414.737 680.811 414.944 679.318 415.137C668.991 416.513 658.61 417.566 648.194 418.447C634.219 419.631 620.176 420.449 606.118 421.055C588.068 421.846 569.983 422.294 551.919 422.741C516.61 423.608 481.273 424.475 445.902 425.074L433.353 425.281L418.042 425.487L409.189 425.59C353.427 426.182 297.748 425.879 242.165 423.608C238.466 423.461 234.774 423.301 231.088 423.126C222.827 422.764 214.566 422.344 206.305 421.867C189.749 420.931 173.061 419.748 156.553 417.993C152.175 417.534 147.815 417.027 143.473 416.472C140.513 416.109 137.562 415.712 134.62 415.281C131.343 414.822 128.08 414.322 124.831 413.781C100.736 409.844 77.4746 404.146 56.0234 395.461C50.2721 393.156 44.6447 390.554 39.1641 387.664V266.543C42.2206 262.999 45.2566 259.454 48.1755 255.869C51.6864 251.561 55.0596 247.122 58.1575 242.566H124.796V201.516H242.172V291.765H433.353V220.193H653.922C651.681 223.845 649.749 227.678 648.146 231.651V232.037H647.891C646.208 236.293 645.126 240.764 644.676 245.319C644.005 251.848 645.199 258.434 648.118 264.313V264.602L648.18 264.74C654.569 277.402 668.089 286.376 683.744 294.332C686.629 295.805 689.596 297.236 692.604 298.654C709.408 306.582 727.514 313.959 741.365 323.704L741.778 323.993C745.425 326.522 748.837 329.373 751.973 332.513C752.077 332.609 752.166 332.705 752.256 332.802C753.56 334.151 754.791 335.568 755.945 337.048C760.961 343.385 763.783 351.178 763.986 359.256C763.993 359.462 763.993 359.648 763.993 359.834Z" fill="#007BFF"/>
<path opacity="0.3" d="M763.993 359.834C763.993 360.24 763.993 360.646 763.993 361.059C763.642 373.845 756.558 386.597 743.561 395.571C729.875 405.013 711.522 409.982 692.68 413.155C689.733 413.65 686.773 414.097 683.82 414.531C682.312 414.737 680.811 414.944 679.318 415.137C668.991 416.513 658.61 417.566 648.194 418.447C634.219 419.631 620.176 420.449 606.118 421.055C588.068 421.846 569.983 422.294 551.919 422.741C516.61 423.608 481.273 424.475 445.902 425.074L433.353 425.281L418.042 425.487L409.189 425.59C353.427 426.182 297.748 425.879 242.165 423.608C238.466 423.461 234.774 423.301 231.088 423.126C222.827 422.764 214.566 422.344 206.305 421.867C189.749 420.931 173.061 419.748 156.553 417.993C152.175 417.534 147.815 417.027 143.473 416.472C140.513 416.109 137.562 415.712 134.62 415.281C131.343 414.822 128.08 414.322 124.831 413.781C100.736 409.844 77.4746 404.146 56.0234 395.461C50.2721 393.156 44.6447 390.554 39.1641 387.664V266.543C42.2206 262.999 45.2566 259.454 48.1755 255.869C51.6864 251.561 55.0596 247.122 58.1575 242.566H124.796V201.516H242.172V291.765H433.353V220.193H653.922C651.681 223.845 649.749 227.678 648.146 231.651V232.037H647.891C646.208 236.293 645.126 240.764 644.676 245.319C644.005 251.848 645.199 258.434 648.118 264.313V264.602L648.18 264.74C654.569 277.402 668.089 286.376 683.744 294.332C686.629 295.805 689.596 297.236 692.604 298.654C709.408 306.582 727.514 313.959 741.365 323.704L741.778 323.993C745.425 326.522 748.837 329.373 751.973 332.513C752.077 332.609 752.166 332.705 752.256 332.802C753.56 334.151 754.791 335.568 755.945 337.048C760.961 343.385 763.783 351.178 763.986 359.256C763.993 359.462 763.993 359.648 763.993 359.834Z" fill="black"/>
<path opacity="0.4" d="M80.7447 259.303H61.0559V272.585H80.7447V259.303Z" fill="black"/>
<path opacity="0.4" d="M112.247 259.303H92.5579V272.585H112.247V259.303Z" fill="black"/>
<path opacity="0.4" d="M473.963 232.002H454.274V245.285H473.963V232.002Z" fill="black"/>
<path opacity="0.4" d="M527.115 232.002H507.427V245.285H527.115V232.002Z" fill="black"/>
<path opacity="0.4" d="M584.199 232.002H564.51V245.285H584.199V232.002Z" fill="black"/>
<path opacity="0.4" d="M473.963 272.592H454.274V285.874H473.963V272.592Z" fill="black"/>
<path opacity="0.4" d="M527.115 272.592H507.427V285.874H527.115V272.592Z" fill="black"/>
<path d="M584.199 272.592H564.51V285.874H584.199V272.592Z" fill="#007BFF"/>
<path opacity="0.4" d="M473.963 313.174H454.274V326.456H473.963V313.174Z" fill="black"/>
<path opacity="0.4" d="M527.115 313.174H507.427V326.456H527.115V313.174Z" fill="black"/>
<path opacity="0.4" d="M584.199 313.174H564.51V326.456H584.199V313.174Z" fill="black"/>
<path opacity="0.4" d="M473.963 353.764H454.274V367.046H473.963V353.764Z" fill="black"/>
<path opacity="0.4" d="M527.115 353.764H507.427V367.046H527.115V353.764Z" fill="black"/>
<path opacity="0.4" d="M584.199 353.764H564.51V367.046H584.199V353.764Z" fill="black"/>
<path opacity="0.4" d="M473.963 394.354H454.274V407.636H473.963V394.354Z" fill="black"/>
<path opacity="0.4" d="M527.115 394.354H507.427V407.636H527.115V394.354Z" fill="black"/>
<path opacity="0.4" d="M584.199 394.354H564.51V407.636H584.199V394.354Z" fill="black"/>
<path opacity="0.4" d="M647.919 232.037C646.235 236.294 645.153 240.764 644.704 245.319H633.903V232.037H647.919Z" fill="black"/>
<path d="M653.591 272.592H633.903V285.874H653.591V272.592Z" fill="#007BFF"/>
<path opacity="0.4" d="M653.591 313.174H633.903V326.456H653.591V313.174Z" fill="black"/>
<path opacity="0.4" d="M653.591 353.764H633.903V367.046H653.591V353.764Z" fill="black"/>
<path opacity="0.4" d="M653.591 394.354H633.903V407.636H653.591V394.354Z" fill="black"/>
<path opacity="0.4" d="M190.003 216.504H170.315V229.786H190.003V216.504Z" fill="black"/>
<path d="M190.003 246.283H170.315V259.565H190.003V246.283Z" fill="#007BFF"/>
<path opacity="0.4" d="M190.003 276.054H170.315V289.336H190.003V276.054Z" fill="black"/>
<path opacity="0.4" d="M190.003 305.832H170.315V319.114H190.003V305.832Z" fill="black"/>
<path opacity="0.4" d="M190.003 335.603H170.315V348.885H190.003V335.603Z" fill="black"/>
<path opacity="0.4" d="M190.003 365.381H170.315V378.663H190.003V365.381Z" fill="black"/>
<path opacity="0.4" d="M190.003 395.152H170.315V408.434H190.003V395.152Z" fill="black"/>
<path opacity="0.4" d="M80.7447 294.015H61.0559V307.297H80.7447V294.015Z" fill="black"/>
<path opacity="0.4" d="M112.247 294.015H92.5579V307.297H112.247V294.015Z" fill="black"/>
<path opacity="0.4" d="M80.7447 328.728H61.0559V342.01H80.7447V328.728Z" fill="black"/>
<path opacity="0.4" d="M112.247 328.728H92.5579V342.01H112.247V328.728Z" fill="black"/>
<path opacity="0.4" d="M80.7447 363.44H61.0559V376.722H80.7447V363.44Z" fill="black"/>
<path opacity="0.4" d="M112.247 363.44H92.5579V376.722H112.247V363.44Z" fill="black"/>
<path opacity="0.4" d="M379.966 307.242H281.536V319.113H379.966V307.242Z" fill="black"/>
<path opacity="0.4" d="M379.966 345.12H281.536V356.991H379.966V345.12Z" fill="black"/>
<path opacity="0.4" d="M379.966 383.005H281.536V394.877H379.966V383.005Z" fill="black"/>
<path d="M143.432 0.474925V416.142C140.472 415.779 137.521 415.382 134.579 414.951V0.0620117C137.532 0.117067 140.479 0.268468 143.432 0.474925Z" fill="#3F3D56"/>
<path d="M418.042 68.351V425.184L409.189 425.287V67.2705C412.135 67.6697 415.086 68.0298 418.042 68.351Z" fill="#3F3D56"/>
<path d="M752.256 332.513H0.192871C0.465905 329.524 0.979289 326.562 1.72804 323.656H741.833C745.577 326.275 749.067 329.24 752.256 332.513Z" fill="#3F3D56"/>
<path d="M683.799 294.015C686.684 295.488 689.651 296.919 692.659 298.337V412.866C689.713 413.361 686.753 413.808 683.799 414.242V294.015Z" fill="#3F3D56"/>
<path d="M232.224 158.153H230.531V156.46H230.228V158.153H228.534V158.456H230.228V160.149H230.531V158.456H232.224V158.153Z" fill="#E7EFFD"/>
<path d="M584.199 122.966H582.505V121.273H582.195V122.966H580.509V123.269H582.195V124.962H582.505V123.269H584.199V122.966Z" fill="#E7EFFD"/>
<path d="M272.338 116.118H270.645V114.425H270.335V116.118H268.648V116.428H270.335V118.114H270.645V116.428H272.338V116.118Z" fill="#E7EFFD"/>
<path d="M269.757 225.43C270.369 225.43 270.865 224.934 270.865 224.322C270.865 223.71 270.369 223.214 269.757 223.214C269.145 223.214 268.648 223.71 268.648 224.322C268.648 224.934 269.145 225.43 269.757 225.43Z" fill="#E7EFFD"/>
<path d="M522.523 126.441C523.136 126.441 523.632 125.945 523.632 125.333C523.632 124.721 523.136 124.225 522.523 124.225C521.911 124.225 521.415 124.721 521.415 125.333C521.415 125.945 521.911 126.441 522.523 126.441Z" fill="#E7EFFD"/>
<path d="M633.903 178.916C634.515 178.916 635.011 178.42 635.011 177.808C635.011 177.196 634.515 176.7 633.903 176.7C633.29 176.7 632.794 177.196 632.794 177.808C632.794 178.42 633.29 178.916 633.903 178.916Z" fill="#E7EFFD"/>
<path d="M459.471 188.42C460.083 188.42 460.579 187.924 460.579 187.312C460.579 186.7 460.083 186.204 459.471 186.204C458.859 186.204 458.363 186.7 458.363 187.312C458.363 187.924 458.859 188.42 459.471 188.42Z" fill="#E7EFFD"/>
<path d="M492.44 373.804C492.44 373.804 468.82 379.516 459.471 390.204C456.339 393.775 451.692 396.349 446.894 398.187V382.062C452.298 372.992 457.743 362.903 457.743 362.903C457.991 362.408 459.96 355.45 459.96 355.45C464.394 351.968 459.712 339.801 459.712 339.801C459.712 339.801 462.425 332.1 460.945 330.606C459.464 329.113 460.697 325.142 461.929 323.401C463.161 321.66 462.913 319.423 462.913 317.937C462.913 316.45 460.945 314.207 457.743 312.968C454.542 311.729 457.991 309.74 459.96 309.238C461.929 308.736 462.425 304.022 460.208 301.537C457.991 299.053 460.456 297.566 461.681 294.834C462.907 292.102 457.723 292.598 457.723 292.598V267.479C457.723 267.479 456.243 259.282 454.769 244.872C453.296 230.461 447.631 228.974 447.631 228.974C444.596 228.032 441.635 226.868 438.771 225.492C435.755 224.079 432.628 222.917 429.422 222.017C429.422 222.017 422.779 222.017 417.361 220.351C411.943 218.686 409.134 218.569 409.134 218.569L408.246 218.129C401.584 214.742 396.306 209.147 393.314 202.3C393.163 201.956 393.025 201.612 392.887 201.282C394.359 199.67 395.675 197.924 396.818 196.065V196.024C396.818 196.279 396.818 196.533 396.818 196.788C396.818 196.891 396.818 197.001 396.818 197.104C396.818 197.717 396.818 198.329 396.818 198.942V199.004C400.742 192.074 412.129 190.491 413.21 182.577C413.259 182.216 413.284 181.853 413.285 181.489V181.441C413.285 181.18 413.285 180.911 413.285 180.643C413.141 178.434 412.383 176.232 412.239 174.002C412.191 173.363 412.191 172.721 412.239 172.082V172.123C412.748 165.978 417.381 160.63 419.502 154.664C420.072 153.059 420.444 151.39 420.61 149.695V149.647C420.665 149.138 420.7 148.621 420.713 148.105C420.713 147.981 420.713 147.851 420.713 147.727C420.713 147.369 420.713 147.039 420.713 146.653C420.649 143.479 419.935 140.351 418.614 137.463C417.294 134.575 415.396 131.988 413.038 129.861C409.114 126.455 403.93 124.315 401.21 119.862C399.944 117.797 399.324 115.347 397.94 113.352C395.338 109.58 390.561 108.046 386.038 107.502C381.515 106.958 376.868 107.137 372.545 105.72C369.474 104.715 366.693 102.932 363.595 102.038C360.22 101.135 356.649 101.286 353.362 102.471C350.076 103.655 347.23 105.817 345.208 108.665C343.576 111.046 342.509 113.895 340.306 115.753C335.797 119.566 328.149 117.914 324.197 122.305C322.029 124.721 321.781 128.01 322.042 131.368C322.042 131.41 322.042 131.451 322.042 131.492C322.042 131.747 322.091 132.009 322.118 132.27C322.118 132.394 322.118 132.518 322.118 132.635C322.118 132.752 322.118 132.896 322.166 133.027C322.304 134.231 322.476 135.429 322.627 136.585C322.627 136.764 322.669 136.936 322.689 137.115L322.813 138.195C322.813 138.457 322.855 138.718 322.882 138.98C322.91 139.241 322.93 139.668 322.951 139.957C322.972 140.246 322.951 140.466 322.999 140.728C323.441 149.899 321.496 159.028 317.354 167.223C313.63 174.525 308.095 181.255 307.131 189.41C306.981 190.747 306.944 192.094 307.021 193.436C307.021 193.595 307.021 193.753 307.021 193.911C307.021 194.069 307.062 194.393 307.083 194.634C307.104 194.875 307.138 195.191 307.172 195.466C307.172 195.625 307.214 195.783 307.234 195.941C307.283 196.306 307.338 196.671 307.4 197.042L307.441 197.276C308.419 202.837 310.635 208.287 311.812 213.903C312.254 215.974 312.548 218.074 312.694 220.186C312.69 220.2 312.69 220.214 312.694 220.228C312.735 220.916 312.769 221.57 312.79 222.244C312.79 223.152 312.79 224.068 312.79 224.997C310.921 225.715 309.005 226.303 307.055 226.758C303.613 227.254 293.514 236.2 294.251 238.458C294.987 240.715 289.735 256.351 289.59 256.825L281.329 313.945C281.329 313.945 276.944 318.171 278.314 320.903C279.684 323.635 278.046 328.356 278.046 328.356C278.046 328.356 270.638 331.584 272.283 333.572C273.929 335.561 273.178 339.284 272.049 341.769C270.92 344.253 269.069 348.726 272.049 349.47C275.03 350.213 272.559 359.909 272.559 359.909C272.559 359.909 282.947 358.712 282.197 364.878C281.949 366.84 289.459 372.235 292.592 374.396V404.084C288.386 402.908 283.443 401.38 280.29 399.907C273.894 396.927 237.966 391.215 230.09 408.358C222.215 425.501 240.919 448.356 245.593 450.84C245.593 450.84 250.027 454.315 251.011 456.056C251.996 457.798 257.655 458.293 257.655 458.293C257.655 458.293 263.561 461.046 265.034 462.512C266.122 463.613 275.12 466.469 285.783 468.705C285.783 468.705 277.171 488.525 291.222 486.894C305.272 485.263 312.115 478.347 322.022 478.347C325.98 478.347 333.332 477.789 340.733 477.129C342.592 477.458 344.431 477.892 346.24 478.43C350.41 479.74 354.692 480.661 359.031 481.182C359.031 481.182 370.108 487.142 376.014 485.649C376.501 485.512 376.956 485.278 377.35 484.96H377.488C378.561 484.692 379.78 483.584 381.047 481.912C388.433 482.669 396.88 483.742 400.019 484.967C406.14 487.328 449.916 484.059 449.916 484.059C449.916 484.059 478.196 484.616 486.299 487.066C494.402 489.516 491.524 462.051 476.572 458.961C472.58 458.16 468.519 457.759 464.449 457.763C465.484 456.695 466.431 455.545 467.278 454.322C472.661 453.834 476.227 453.531 476.227 453.531C476.227 453.531 490.498 446.573 498.622 442.348C503.808 439.527 508.467 435.83 512.39 431.419C512.39 431.419 519.522 426.946 522.475 425.226C525.429 423.505 526.902 417.772 526.902 417.772C549.282 367.087 492.44 373.804 492.44 373.804ZM428.362 310.229C428.362 309.396 428.362 308.557 428.362 307.724C429.16 308.288 429.043 309.176 428.362 310.222V310.229ZM428.596 327.799C429.195 328.583 429.773 329.299 430.186 329.863C431.776 331.928 428.899 332.891 429.105 336.311C429.153 337.075 429.222 338.142 429.291 339.326C428.988 334.391 428.74 330.331 428.596 327.792V327.799Z" fill="url(#paint1_linear)"/>
<path d="M300.509 406.197C300.509 406.197 286.74 402.997 280.331 400.045C273.922 397.092 238.007 391.435 230.132 408.413C222.256 425.391 240.96 448.012 245.635 450.475C250.309 452.939 295.834 419.225 295.834 419.225L331.742 434.365L338.626 410.87L300.509 406.197Z" fill="#65617D"/>
<path d="M446.667 410.87H341.056C327.053 410.87 315.702 422.218 315.702 436.216V439.884C315.702 453.882 327.053 465.23 341.056 465.23H446.667C460.67 465.23 472.021 453.882 472.021 439.884V436.216C472.021 422.218 460.67 410.87 446.667 410.87Z" fill="#65617D"/>
<path opacity="0.1" d="M472.021 438.046C472.026 443.393 470.45 448.622 467.491 453.077C466.485 454.586 465.332 455.992 464.049 457.274C461.527 459.803 458.53 461.808 455.23 463.174C451.931 464.541 448.393 465.242 444.822 465.237H342.894C335.683 465.237 328.766 462.373 323.666 457.275C318.567 452.177 315.702 445.263 315.702 438.053C315.702 430.844 318.567 423.93 323.666 418.832C328.766 413.734 335.683 410.87 342.894 410.87H444.829C452.039 410.87 458.955 413.733 464.054 418.829C469.154 423.926 472.019 430.838 472.021 438.046Z" fill="black"/>
<path d="M386.912 439.636C386.912 439.636 371.237 443.662 358.446 443.483C345.655 443.304 285.825 468.155 285.825 468.155C285.825 468.155 277.212 487.782 291.263 486.158C305.314 484.534 312.157 477.721 322.063 477.721C331.969 477.721 363.134 474.28 363.134 474.28L393.121 452.134L386.912 439.636Z" fill="#FBBEBE"/>
<path d="M396.722 254.424L368.607 259.963L366.783 260.328C366.783 260.328 344.554 254.424 343.817 253.928C343.08 253.433 322.903 226.256 322.903 226.256C322.903 226.256 333.105 226.366 341.118 221.748C341.408 221.583 341.69 221.404 341.972 221.232C345.496 219.108 348.172 215.826 349.545 211.948C349.689 211.542 349.813 211.123 349.93 210.682C350.784 207.393 350.839 203.408 349.696 198.584C346.942 187.112 353.276 183.953 361.668 184.228C373.791 184.627 390.292 192.191 390.292 192.191C390.506 196.051 391.384 199.846 392.887 203.408C393.018 203.738 393.163 204.096 393.314 204.413C396.325 211.205 401.603 216.739 408.246 220.069L409.134 220.51C410.029 220.936 410.972 221.342 411.95 221.707C433.387 229.828 396.722 254.424 396.722 254.424Z" fill="#FBBEBE"/>
<path opacity="0.1" d="M393.342 204.413C387.995 210.464 380.742 214.509 372.783 215.88C364.824 217.25 356.636 215.863 349.572 211.949C350.784 208.425 351.011 204.042 349.724 198.584C343.08 170.541 390.34 192.191 390.34 192.191C390.573 196.416 391.591 200.561 393.342 204.413Z" fill="black"/>
<path d="M402.215 179.5C402.227 186.128 400.366 192.624 396.846 198.24C395.7 200.082 394.384 201.812 392.915 203.408C386.714 210.202 378.101 214.302 368.917 214.832C368.228 214.88 367.492 214.901 366.776 214.901C359.768 214.901 352.917 212.823 347.09 208.931C341.263 205.039 336.722 199.507 334.04 193.035C331.358 186.562 330.656 179.44 332.024 172.569C333.391 165.698 336.765 159.387 341.721 154.433C346.676 149.479 352.99 146.106 359.863 144.739C366.736 143.372 373.861 144.074 380.335 146.755C386.81 149.436 392.344 153.976 396.237 159.801C400.13 165.626 402.209 172.474 402.209 179.48L402.215 179.5Z" fill="#FBBEBE"/>
<path opacity="0.1" d="M396.722 254.424L368.607 259.964L366.783 260.329C366.783 260.329 344.554 254.424 343.817 253.928C343.08 253.433 322.903 226.256 322.903 226.256C322.903 226.256 333.105 226.366 341.118 221.749C341.408 221.583 341.69 221.404 341.972 221.232C344.519 223.985 352.856 231.769 365.957 231.714C367.638 231.714 369.318 231.592 370.982 231.349C374.934 230.743 378.919 230.351 382.899 229.972C390.519 229.174 402.174 226.862 408.294 220.131L409.182 220.572C410.077 220.998 411.02 221.404 411.998 221.769C433.387 229.828 396.722 254.424 396.722 254.424Z" fill="black"/>
<path d="M428.465 326.25C428.706 331.666 432.65 392.667 432.65 392.667H309.857L310.69 354.259L311.379 323.539L311.599 313.457L312.583 278.531L309.024 275.393L289.68 258.353C289.824 257.899 295.07 242.353 294.34 240.164C293.611 237.976 303.696 229.098 307.145 228.603C309.105 228.148 311.032 227.562 312.914 226.848C318.717 224.783 326.462 221.81 327.316 222.278C328.52 222.925 340.595 221.804 341.084 221.755C341.084 221.755 349.992 233.269 365.908 233.2C367.584 233.191 369.257 233.058 370.913 232.801C374.865 232.195 378.851 231.803 382.83 231.39C390.836 230.557 403.283 228.045 409.113 220.517C409.113 220.517 411.929 220.634 417.34 222.278C422.751 223.923 429.401 223.93 429.401 223.93C432.606 224.821 435.732 225.972 438.75 227.371C441.616 228.731 444.577 229.881 447.61 230.812C447.61 230.812 453.269 232.285 454.749 246.551C456.229 260.817 457.723 268.938 457.723 268.938L428.465 294.27C428.465 294.27 428.224 320.813 428.465 326.25Z" fill="#007BFF"/>
<path d="M289.687 368.808L293.989 375.696L310.105 381.374L321.182 361.182L310.972 354.294L294.609 347.9L285.26 353.31L289.687 368.808Z" fill="#FBBEBE"/>
<path d="M427.233 402.75C427.233 402.75 450.116 401.029 459.471 390.452C468.827 379.874 492.44 374.217 492.44 374.217C492.44 374.217 549.282 367.576 526.861 417.759C526.861 417.759 525.387 423.416 522.434 425.136C519.481 426.857 512.349 431.289 512.349 431.289L425.037 423.664L427.233 402.75Z" fill="#65617D"/>
<path opacity="0.1" d="M472.021 438.046C472.026 443.393 470.45 448.622 467.491 453.077C452.8 454.377 420.266 457.433 413.457 459.332C405.093 461.651 388.165 457.612 386.313 457.157L386.141 457.116C386.141 457.116 382.878 447.22 381.322 440.889C380.633 438.012 380.269 435.872 380.723 435.714C382.203 435.225 395.737 431.529 395.489 433.649C395.242 435.769 436.106 417.779 436.106 417.779L437.359 433.525C441.51 438.274 472.021 431.213 472.021 438.046Z" fill="black"/>
<path d="M514.097 424.888L512.376 431.288C508.445 435.661 503.787 439.321 498.608 442.107C490.485 446.291 476.214 453.18 476.214 453.18C476.214 453.18 423.804 457.605 414.944 460.062C406.084 462.519 387.628 457.846 387.628 457.846C387.628 457.846 380.744 436.939 382.217 436.443C383.69 435.948 397.225 432.266 396.984 434.378C396.743 436.491 437.6 418.509 437.6 418.509L514.097 424.888Z" fill="#65617D"/>
<path d="M368.173 480.04C368.173 480.04 393.934 481.836 400.061 484.169C406.188 486.502 449.957 483.274 449.957 483.274C449.957 483.274 478.237 483.825 486.34 486.247C494.443 488.67 491.565 461.473 476.613 458.424C461.66 455.375 440.588 459.862 440.588 459.862C440.588 459.862 416.81 456.8 413.925 456.421C411.041 456.043 392.047 456.593 392.047 456.593L368.173 480.04Z" fill="#FBBEBE"/>
<path opacity="0.1" d="M266.941 412.15C266.941 412.15 300.99 415.212 310.353 420.794L266.941 412.15Z" fill="black"/>
<path opacity="0.1" d="M479.318 389.825C479.318 389.825 452.656 396.308 442.206 405.846L479.318 389.825Z" fill="black"/>
<path opacity="0.1" d="M268.924 404.408C269.468 404.587 284.599 406.569 284.234 408.007C283.869 409.445 268.924 404.408 268.924 404.408Z" fill="black"/>
<path opacity="0.1" d="M245.146 442.355L247.115 449.739C247.115 449.739 251.541 453.18 252.526 454.9C253.51 456.621 259.169 457.116 259.169 457.116C259.169 457.116 265.075 459.821 266.556 461.294C268.036 462.766 284.021 467.446 299.035 469.414C314.05 471.383 341.848 475.071 347.755 477.039C351.928 478.333 356.212 479.239 360.552 479.744C360.552 479.744 371.622 485.649 377.529 484.176C383.435 482.703 393.521 455.885 393.521 455.885C393.521 455.885 354.646 446.787 353.413 443.834C352.181 440.882 314.779 427.111 314.779 427.111L292.633 427.634L245.146 442.355Z" fill="black"/>
<path d="M243.666 443.091L245.635 450.475C245.635 450.475 250.068 453.916 251.053 455.637C252.037 457.357 257.696 457.853 257.696 457.853C257.696 457.853 263.602 460.557 265.076 462.037C266.549 463.516 282.548 468.182 297.555 470.151C312.563 472.119 340.375 475.808 346.281 477.776C350.453 479.066 354.735 479.969 359.072 480.473C359.072 480.473 370.149 486.371 376.056 484.898C381.962 483.426 392.047 456.607 392.047 456.607C392.047 456.607 353.166 447.509 351.94 444.557C350.715 441.604 295.834 419.225 295.834 419.225L278.624 415.288L243.666 443.091Z" fill="#65617D"/>
<path d="M293.982 255.896L289.68 258.36L281.419 314.936C281.419 314.936 277.033 319.12 278.403 321.818C279.773 324.516 278.135 329.196 278.135 329.196C278.135 329.196 270.728 332.396 272.373 334.364C274.018 336.332 273.268 340.021 272.139 342.478C271.01 344.934 269.158 349.36 272.139 350.103C275.12 350.846 272.648 360.426 272.648 360.426C272.648 360.426 283.036 359.242 282.286 365.339C281.976 367.803 294.03 375.662 294.03 375.662C294.03 375.662 280.331 350.818 311.021 354.259L313.657 340.255C313.657 340.255 316.294 332.368 313.657 329.932C311.021 327.496 314.249 315.79 314.249 315.79L314.828 264.994L293.982 255.896Z" fill="#007BFF"/>
<path opacity="0.1" d="M287.298 328.962C287.841 329.863 304.412 331.715 305.493 334.653C306.573 337.592 287.298 328.962 287.298 328.962Z" fill="black"/>
<path opacity="0.1" d="M282.073 343.008C282.073 343.008 284.324 335.981 289.645 337.24C294.967 338.5 282.073 343.008 282.073 343.008Z" fill="black"/>
<path opacity="0.1" d="M279.195 353.268C279.195 353.268 283.153 343.902 288.558 344.625C293.962 345.347 279.195 353.268 279.195 353.268Z" fill="black"/>
<path d="M459.471 353.062L457.743 363.385C457.743 363.385 440.03 395.861 436.829 396.349C433.628 396.838 416.177 374.706 416.177 374.706L411.502 353.055L429.904 349.566L438.075 341.494C438.075 341.494 458.728 343.469 459.471 353.062Z" fill="#FBBEBE"/>
<path d="M451.1 264.265L457.743 268.938V293.781C457.743 293.781 462.913 293.286 461.681 295.997C460.449 298.709 457.991 300.175 460.208 302.638C462.425 305.102 461.929 309.768 459.96 310.263C457.991 310.759 454.549 312.72 457.743 313.952C460.938 315.184 462.913 317.393 462.913 318.873C462.913 320.352 463.161 322.561 461.929 324.282C460.697 326.002 459.471 329.939 460.944 331.418C462.418 332.898 459.712 340.516 459.712 340.516C459.712 340.516 464.393 352.573 459.96 356.014C459.96 356.014 457.991 362.896 457.743 363.392C457.743 363.392 460.848 339.45 429.89 349.573C429.89 349.573 429.319 340.447 429.105 337.068C428.892 333.689 431.776 332.698 430.186 330.682C428.596 328.666 424.617 324.034 426.496 322.809C428.375 321.584 427.728 319.368 426.985 317.641C426.241 315.913 423.646 315.92 426 313.828C428.355 311.736 429.752 309.775 428.369 308.791C426.985 307.807 424.582 304.6 426.496 303.127C428.41 301.654 428.465 280.251 428.465 280.251C428.465 280.251 436.34 248.767 451.1 264.265Z" fill="#007BFF"/>
<path opacity="0.1" d="M447.975 306.589C447.975 306.589 457.433 304.022 457.743 306.589C458.053 309.156 447.975 306.589 447.975 306.589Z" fill="black"/>
<path opacity="0.1" d="M437.345 313.656C437.345 313.656 450.315 310.415 451.933 312.934C453.551 315.452 437.345 313.656 437.345 313.656Z" fill="black"/>
<path opacity="0.1" d="M434.461 320.497C434.461 320.497 453.916 317.792 455.175 321.756C456.435 325.72 434.461 320.497 434.461 320.497Z" fill="black"/>
<path opacity="0.1" d="M437.345 328.962C438.068 329.141 456.077 330.4 456.435 333.821C456.793 337.241 437.345 328.962 437.345 328.962Z" fill="black"/>
<path d="M439.693 340.048H299.848C295.867 340.048 292.64 343.274 292.64 347.254V420.429C292.64 424.408 295.867 427.634 299.848 427.634H439.693C443.674 427.634 446.901 424.408 446.901 420.429V347.254C446.901 343.274 443.674 340.048 439.693 340.048Z" fill="#3F3D56"/>
<path d="M369.77 389.529C372.911 389.529 375.457 386.984 375.457 383.845C375.457 380.705 372.911 378.16 369.77 378.16C366.63 378.16 364.084 380.705 364.084 383.845C364.084 386.984 366.63 389.529 369.77 389.529Z" fill="#E7EFFD"/>
<path opacity="0.1" d="M318.469 286.363C318.469 286.363 333.256 297.663 344.691 289.054C344.691 289.054 325.36 290.809 318.469 286.363Z" fill="black"/>
<path opacity="0.1" d="M393.342 289.404C393.342 289.404 408.122 300.697 419.557 292.088C419.557 292.088 400.233 293.85 393.342 289.404Z" fill="black"/>
<path opacity="0.1" d="M402.216 179.501C402.227 186.128 400.366 192.624 396.846 198.24C396.55 188.378 394.23 178.51 388.86 170.272C383.945 162.702 368.999 149.495 358.728 153.177C357.654 153.571 356.687 154.212 355.908 155.049C355.128 155.886 354.556 156.895 354.24 157.995C353.221 161.862 356.202 163.5 358.115 166.549C361.361 171.832 362.629 178.093 361.695 184.222C361.565 185.046 361.393 185.864 361.179 186.671C359.561 192.741 355.857 199.685 359.678 204.661C362.342 208.102 368.07 209.327 368.848 213.607C368.919 214.011 368.942 214.423 368.917 214.832C368.738 217.729 366.266 220.283 365.186 223.125C363.919 226.476 364.635 229.807 365.95 233.172C367.657 237.563 370.383 242.002 371.044 246.64C371.705 251.279 370.28 255.587 368.6 259.943C367.01 264.072 365.158 268.167 364.538 272.468C363.347 280.644 366.349 290.1 361.2 296.555C360.676 297.336 359.868 297.881 358.948 298.076C355.651 298.42 356.195 292.494 353.558 290.506C353.84 293.947 354.109 297.539 352.87 300.76C351.631 303.98 348.367 306.719 344.953 306.176L343.776 298.447C341.452 300.734 338.656 302.484 335.584 303.574C336.793 295.356 339.705 287.48 344.134 280.451C335.466 284.622 330.413 293.651 325.904 302.143C323.096 307.449 320.184 313.243 321.168 319.169C321.567 321.584 322.607 323.883 322.834 326.312C323.061 328.741 322.18 331.584 319.915 332.506C317.939 333.311 315.633 332.347 314.208 330.737L313.96 330.441C313.823 330.262 313.692 330.076 313.568 329.891C313.322 329.517 313.103 329.126 312.914 328.721C312.298 327.266 311.837 325.75 311.537 324.199L311.386 323.511C309.093 313.457 307.028 303.086 308.708 292.914C309.327 289.17 310.456 285.454 310.319 281.655C310.215 279.513 309.778 277.401 309.024 275.393C307.014 269.764 303.145 264.595 300.942 258.925C300.918 258.886 300.9 258.844 300.887 258.801C299.731 255.8 299.159 252.05 301.3 249.641C302.402 248.395 304.054 247.769 305.431 246.888C309.713 244.101 311.627 238.809 312.418 233.757C312.775 231.481 312.954 229.18 312.955 226.876C318.759 224.811 326.503 221.838 327.357 222.306C328.562 222.953 340.637 221.831 341.125 221.783C344.801 219.663 348.009 216.546 349.579 211.983C349.724 211.577 349.848 211.157 349.965 210.717C344.453 207.744 339.828 203.364 336.561 198.023C333.293 192.682 331.501 186.57 331.365 180.311C331.229 174.052 332.755 167.869 335.788 162.391C338.821 156.914 343.251 152.337 348.629 149.129C354.007 145.92 360.139 144.193 366.401 144.125C372.663 144.056 378.832 145.648 384.279 148.738C389.725 151.828 394.255 156.306 397.407 161.716C400.559 167.126 402.221 173.274 402.222 179.535L402.216 179.501Z" fill="black"/>
<path d="M361.179 185.199C359.554 191.269 355.858 198.213 359.685 203.195C362.349 206.636 368.077 207.854 368.841 212.142C369.454 215.582 366.418 218.418 365.192 221.652C362.274 229.381 369.887 236.978 371.044 245.161C372.304 254.039 365.833 262.125 364.545 270.995C363.354 279.171 366.356 288.62 361.206 295.082C360.686 295.866 359.877 296.413 358.955 296.603C355.658 296.954 356.202 291.029 353.565 289.033C353.847 292.474 354.116 296.066 352.877 299.287C351.637 302.508 348.374 305.24 344.96 304.703L343.783 296.968C341.46 299.255 338.663 301.005 335.59 302.095C336.8 293.88 339.71 286.007 344.134 278.979C335.467 283.149 330.42 292.178 325.911 300.663C323.096 305.969 320.191 311.771 321.168 317.696C321.567 320.112 322.607 322.403 322.834 324.839C323.061 327.276 322.18 330.104 319.915 331.033C317.85 331.893 315.351 330.751 313.96 328.969C312.57 327.186 312.033 324.915 311.53 322.72C309.176 312.452 306.98 301.854 308.694 291.462C309.314 287.712 310.443 283.995 310.305 280.203C310.009 271.897 303.875 265.063 300.887 257.335C299.724 254.328 299.159 250.584 301.3 248.175C302.402 246.93 304.054 246.303 305.431 245.422C309.706 242.628 311.627 237.343 312.411 232.292C313.257 226.831 313.101 221.262 311.95 215.858C310.222 207.772 306.257 199.871 307.241 191.661C308.205 183.582 313.74 176.92 317.464 169.687C322.256 160.325 324.094 149.731 322.738 139.304C322.097 134.452 320.975 128.836 324.266 125.209C328.218 120.86 335.866 122.498 340.375 118.727C342.578 116.889 343.645 114.061 345.276 111.707C347.315 108.88 350.165 106.738 353.449 105.565C356.732 104.393 360.295 104.245 363.664 105.142C366.762 106.03 369.543 107.791 372.614 108.789C376.937 110.166 381.563 110.014 386.107 110.558C390.65 111.101 395.407 112.622 398.009 116.345C399.386 118.327 400.013 120.743 401.279 122.794C403.999 127.198 409.182 129.318 413.106 132.697C416.471 135.696 418.878 139.62 420.027 143.978C421.175 148.336 421.014 152.936 419.564 157.203C417.223 163.72 411.805 169.488 412.266 176.397C412.452 179.239 413.643 182.026 413.272 184.841C412.184 192.68 400.804 194.242 396.873 201.11C397.19 189.851 395.028 178.255 388.881 168.82C383.966 161.25 369.02 148.037 358.749 151.718C357.676 152.114 356.71 152.756 355.931 153.593C355.151 154.429 354.579 155.438 354.26 156.536C353.242 160.397 356.222 162.041 358.136 165.09C359.968 168.066 361.182 171.38 361.705 174.835C362.228 178.29 362.049 181.815 361.179 185.199Z" fill="#3F3D56"/>
<g opacity="0.2">
<path opacity="0.2" d="M312.914 224.205C313 220.669 312.669 217.135 311.929 213.676C310.463 206.794 307.393 200.057 307.111 193.147C306.711 200.841 310.312 208.288 311.929 215.858C312.516 218.604 312.846 221.398 312.914 224.205Z" fill="black"/>
<path opacity="0.2" d="M342.241 280.052C342.839 278.958 343.459 277.87 344.127 276.811C335.466 280.981 330.413 290.01 325.904 298.502C323.295 303.409 320.617 308.749 321.017 314.214C321.347 309.527 323.653 304.958 325.904 300.711C330.076 292.859 334.716 284.56 342.241 280.052Z" fill="black"/>
<path opacity="0.2" d="M322.793 324.557C322.531 326.415 321.609 328.177 319.915 328.872C317.85 329.726 315.351 328.59 313.967 326.808C312.583 325.025 312.033 322.761 311.53 320.559C309.85 313.223 308.253 305.708 308.088 298.227C307.923 306.437 309.671 314.709 311.53 322.775C312.033 324.97 312.576 327.248 313.967 329.024C315.358 330.799 317.829 331.941 319.915 331.088C322.18 330.159 323.068 327.331 322.841 324.894C322.793 324.777 322.793 324.667 322.793 324.557Z" fill="black"/>
<path opacity="0.2" d="M361.977 177.808C361.897 179.574 361.63 181.328 361.179 183.038C359.981 187.532 357.64 192.514 358.06 196.802C358.391 193.058 360.181 188.984 361.179 185.233C361.817 182.812 362.087 180.309 361.977 177.808Z" fill="black"/>
<path opacity="0.2" d="M323.144 144.967C323.201 142.343 323.059 139.718 322.717 137.115C322.462 135.202 322.139 133.165 322.029 131.176C321.87 133.825 322.352 136.681 322.717 139.331C322.962 141.2 323.105 143.082 323.144 144.967Z" fill="black"/>
<path opacity="0.2" d="M368.848 212.21C368.848 212.148 368.848 212.1 368.8 212.038C368.276 214.598 366.17 216.938 365.199 219.512C364.623 221.048 364.415 222.698 364.593 224.329C364.677 223.439 364.881 222.564 365.199 221.728C366.418 218.486 369.454 215.624 368.848 212.21Z" fill="black"/>
<path opacity="0.2" d="M310.305 278.042C310.002 269.736 303.875 262.902 300.88 255.174C300.402 253.957 300.079 252.686 299.916 251.389C299.751 253.437 300.081 255.496 300.88 257.39C303.827 265.015 309.788 271.725 310.27 279.845C310.305 279.247 310.325 278.641 310.305 278.042Z" fill="black"/>
<path opacity="0.2" d="M388.881 166.659C383.958 159.089 369.02 145.876 358.749 149.558C357.674 149.953 356.708 150.594 355.927 151.431C355.146 152.268 354.573 153.276 354.253 154.375C354.011 155.217 353.985 156.107 354.178 156.962C354.178 156.839 354.219 156.715 354.253 156.591C354.572 155.492 355.145 154.483 355.926 153.646C356.707 152.809 357.674 152.168 358.749 151.773C369.02 148.092 383.958 161.326 388.881 168.875C394.443 177.422 396.736 187.738 396.887 197.972C397.032 186.995 394.835 175.798 388.881 166.659Z" fill="black"/>
<path opacity="0.2" d="M413.251 182.659C412.17 190.477 400.859 192.053 396.887 198.88C396.887 199.63 396.887 200.387 396.887 201.137C400.811 194.255 412.198 192.707 413.278 184.869C413.375 184.098 413.375 183.319 413.278 182.549C413.273 182.587 413.264 182.624 413.251 182.659Z" fill="black"/>
<path opacity="0.2" d="M419.543 155.015C417.202 161.539 411.784 167.299 412.246 174.215C412.246 174.311 412.246 174.415 412.246 174.518C412.755 168.427 417.388 163.142 419.509 157.231C420.463 154.53 420.873 151.667 420.713 148.807C420.638 150.923 420.243 153.016 419.543 155.015Z" fill="black"/>
<path opacity="0.2" d="M361.206 292.935C360.686 293.72 359.878 294.269 358.955 294.462C355.658 294.813 356.202 288.888 353.565 286.892C353.634 287.677 353.696 288.468 353.737 289.26C356.188 291.379 355.733 297.016 358.955 296.671C359.412 296.578 359.846 296.396 360.232 296.135C360.619 295.874 360.95 295.54 361.206 295.151C364.146 291.462 364.428 286.803 364.352 281.965C364.277 285.998 363.692 289.845 361.206 292.935Z" fill="black"/>
<path opacity="0.2" d="M352.87 297.147C351.617 300.374 348.367 303.106 344.946 302.563C344.556 299.989 344.166 297.41 343.776 294.827C341.553 297.008 338.902 298.702 335.99 299.803C335.838 300.588 335.694 301.379 335.577 302.17C338.652 301.081 341.45 299.331 343.776 297.043C344.166 299.626 344.556 302.205 344.946 304.779C348.388 305.316 351.617 302.59 352.87 299.363C353.639 297.114 353.946 294.734 353.772 292.364C353.735 293.997 353.431 295.613 352.87 297.147Z" fill="black"/>
<path opacity="0.2" d="M364.545 268.848C364.28 270.927 364.18 273.023 364.249 275.118C364.26 273.761 364.359 272.407 364.545 271.064C365.777 262.606 371.705 254.864 371.168 246.475C370.693 254.059 365.667 261.14 364.545 268.848Z" fill="black"/>
</g>
<path d="M569.246 386.191C569.246 386.191 564.572 407.959 585.376 410.54L586.663 408.124C586.663 408.124 570.554 392.984 569.246 386.191Z" fill="#007BFF"/>
<path d="M593.3 407.979L588.481 409.005L587.999 409.108C587.999 409.108 575.091 398.634 575.256 375.249C576.984 378.695 579.048 381.961 581.418 385.001C586.519 391.766 592.336 400.802 593.3 407.979Z" fill="#007BFF"/>
<path d="M594.938 410.223C594.557 410.469 594.126 410.627 593.675 410.686C593.225 410.744 592.768 410.701 592.336 410.56C579.945 407.656 584.11 367.204 584.11 367.204C584.798 367.528 585.548 372.71 588.405 379.316C593.417 391.009 598.924 407.291 594.938 410.223Z" fill="#007BFF"/>
<path d="M622.489 386.191C622.489 386.191 623.294 407.959 602.49 410.54L601.203 408.124C601.203 408.124 621.201 392.984 622.489 386.191Z" fill="#007BFF"/>
<path d="M616.527 375.249C616.678 398.647 599.908 409.108 599.908 409.108L599.427 409.005L594.608 407.979C595.565 400.802 601.395 391.766 606.504 385.001C609.393 381.316 612.764 378.036 616.527 375.249Z" fill="#007BFF"/>
<path d="M599.351 408.104C598.607 409.011 597.665 409.736 596.597 410.223C596.272 410.369 595.933 410.482 595.585 410.56C592.529 411.249 591.455 409.074 591.634 405.33C591.923 398.662 596.115 387.1 599.895 378.491C602.607 372.256 607.034 367.535 607.694 367.225C607.653 367.191 607.467 398.703 599.351 408.104Z" fill="#007BFF"/>
<path d="M595.881 353C595.881 353 582.01 402.178 593.947 409.597C605.884 417.015 598.945 357.356 595.881 353Z" fill="#007BFF"/>
<path opacity="0.1" d="M569.246 386.191C569.246 386.191 564.572 407.959 585.376 410.54L586.663 408.124C586.663 408.124 570.554 392.984 569.246 386.191Z" fill="black"/>
<path opacity="0.1" d="M593.3 407.979L588.481 409.005L587.999 409.108C587.999 409.108 575.091 398.634 575.256 375.249C576.984 378.695 579.048 381.961 581.418 385.001C586.519 391.766 592.336 400.802 593.3 407.979Z" fill="black"/>
<path opacity="0.1" d="M594.938 410.223C594.557 410.469 594.126 410.627 593.675 410.686C593.225 410.744 592.768 410.701 592.336 410.56C579.945 407.656 584.11 367.204 584.11 367.204C584.798 367.528 585.548 372.71 588.405 379.316C593.417 391.009 598.924 407.291 594.938 410.223Z" fill="black"/>
<path opacity="0.1" d="M622.489 386.191C622.489 386.191 623.294 407.959 602.49 410.54L601.203 408.124C601.203 408.124 621.201 392.984 622.489 386.191Z" fill="black"/>
<path opacity="0.1" d="M616.527 375.249C616.678 398.647 599.908 409.108 599.908 409.108L599.427 409.005L594.608 407.979C595.565 400.802 601.395 391.766 606.504 385.001C609.393 381.316 612.764 378.036 616.527 375.249Z" fill="black"/>
<path opacity="0.1" d="M599.351 408.104C598.607 409.011 597.665 409.736 596.597 410.223C596.272 410.369 595.933 410.482 595.585 410.56C592.529 411.249 591.455 409.074 591.634 405.33C591.923 398.662 596.115 387.1 599.895 378.491C602.607 372.256 607.034 367.535 607.694 367.225C607.653 367.191 607.467 398.703 599.351 408.104Z" fill="black"/>
<path opacity="0.1" d="M595.881 353C595.881 353 582.01 402.178 593.947 409.597C605.884 417.015 598.945 357.356 595.881 353Z" fill="black"/>
<path d="M569.246 386.191C569.246 386.191 566.493 407.959 587.311 410.54L588.598 408.124C588.598 408.124 570.554 392.984 569.246 386.191Z" fill="#007BFF"/>
<path d="M595.234 407.979L590.415 409.005L589.927 409.108C589.927 409.108 575.084 398.634 575.249 375.249C575.249 375.249 579.049 379.323 583.345 385.001C588.453 391.766 594.27 400.802 595.234 407.979Z" fill="#007BFF"/>
<path opacity="0.1" d="M595.234 407.98L590.415 409.005C585.824 404.979 584.006 394.47 583.345 385.001C588.453 391.766 594.27 400.802 595.234 407.98Z" fill="black"/>
<path d="M596.873 410.223C596.491 410.469 596.06 410.627 595.61 410.686C595.159 410.744 594.702 410.701 594.27 410.56C581.844 407.656 584.109 367.204 584.109 367.204C584.798 367.528 587.483 372.71 590.305 379.316C595.351 391.009 600.859 407.291 596.873 410.223Z" fill="#007BFF"/>
<path d="M622.489 386.191C622.489 386.191 625.242 407.959 604.425 410.54L603.137 408.124C603.137 408.124 621.201 392.984 622.489 386.191Z" fill="#007BFF"/>
<path d="M616.527 375.249C616.678 398.647 601.843 409.108 601.843 409.108L601.361 409.005L596.542 407.979C597.506 400.802 603.33 391.766 608.438 385.001C612.72 379.309 616.527 375.249 616.527 375.249Z" fill="#007BFF"/>
<path opacity="0.1" d="M608.417 385.001C607.798 393.837 606.18 403.582 602.256 408.104C601.982 408.428 601.683 408.729 601.361 409.005L596.542 407.98C597.472 400.802 603.309 391.766 608.417 385.001Z" fill="black"/>
<path d="M601.285 408.104C600.541 409.011 599.599 409.736 598.532 410.223C598.204 410.369 597.863 410.482 597.513 410.56C594.456 411.249 593.382 409.074 593.561 405.33C593.857 398.662 598.043 387.1 601.822 378.491C604.535 372.256 607.027 367.535 607.688 367.225C607.653 367.191 609.402 398.703 601.285 408.104Z" fill="#007BFF"/>
<path opacity="0.1" d="M596.873 410.223C596.17 410.219 595.485 410.001 594.911 409.597C589.066 405.956 588.949 392.296 590.34 379.316C595.351 391.009 600.859 407.291 596.873 410.223Z" fill="black"/>
<path opacity="0.1" d="M601.285 408.104C600.597 409.556 599.709 410.326 598.532 410.223C597.936 410.144 597.366 409.93 596.866 409.597C595.347 408.553 594.192 407.061 593.561 405.33C593.857 398.662 598.043 387.1 601.822 378.491C603.13 390.458 603.578 403.183 601.285 408.104Z" fill="black"/>
<path d="M595.881 353C595.881 353 583.944 402.178 595.881 409.597C607.818 417.015 598.945 357.356 595.881 353Z" fill="#007BFF"/>
<path d="M618.785 407.174H569.109V415.398H576.688L576.874 416.369L579.91 432.328H608.789L611.825 416.369L612.011 415.398H618.785V407.174Z" fill="#D4DFEC"/>
<path opacity="0.1" d="M618.764 407.174H569.088V415.398H576.667L576.853 416.369L579.889 432.328H608.768L611.804 416.369L611.99 415.398H618.764V407.174Z" fill="black"/>
<path d="M614.593 412.012L613.76 416.369L610.724 432.328H581.844L578.809 416.369L577.976 412.012H614.593Z" fill="#D4DFEC"/>
<path opacity="0.1" d="M614.593 412.012L613.76 416.369H578.809L577.976 412.012H614.593Z" fill="black"/>
<path d="M620.719 407.174H571.043V415.398H620.719V407.174Z" fill="#D4DFEC"/>
<path d="M196.626 354.535C195.919 355.505 195.354 356.571 194.946 357.7C194.843 357.976 194.74 358.292 194.636 358.595C194.451 358.504 194.254 358.437 194.051 358.395C193.193 358.177 192.305 358.1 191.422 358.168C191.422 357.824 191.456 357.48 191.47 357.088C191.58 353.193 191.119 347.777 187.408 350.068C183.849 352.284 186.389 355.959 188.689 358.327C188.888 358.533 189.081 358.719 189.274 358.905C187.208 360.412 186.782 363.873 186.431 367.5C186.079 371.127 182.988 375.07 180.964 377.341C180.765 377.568 180.572 377.775 180.386 377.967C179.563 377.305 178.608 376.826 177.584 376.563C176.561 376.299 175.493 376.257 174.452 376.44L174.177 375.435C172.524 369.468 169.089 359.132 164.711 356.854L165.289 356.124C167.148 353.688 169.241 350.075 166.15 349.153C163.059 348.231 162.776 352.284 162.949 355.347C162.949 355.725 163.004 356.09 163.038 356.427C162.419 356.456 161.812 356.61 161.255 356.881C160.697 357.152 160.201 357.534 159.796 358.003C159.651 357.824 159.493 357.638 159.321 357.439C156.815 354.473 152.209 349.786 150.819 353.31C149.524 356.613 153.572 360.88 156.422 363.398L156.601 363.55C154.688 371.313 163.031 377.63 167.533 380.397C167.733 380.528 167.926 380.644 168.112 380.755C161.916 388.056 158.081 401.751 158.081 401.751L175.471 404.91C175.471 404.91 186.988 394.98 185.515 385.641H185.632C197.135 383.335 199.751 371.072 197.962 363.791L198.161 363.708C200.256 362.85 202.092 361.463 203.49 359.682C206.684 355.223 199.93 350.165 196.626 354.535Z" fill="#007BFF"/>
<path opacity="0.1" d="M196.626 354.535C195.919 355.505 195.354 356.571 194.946 357.7C194.843 357.976 194.74 358.292 194.636 358.595C194.451 358.504 194.254 358.437 194.051 358.395C193.193 358.177 192.305 358.1 191.422 358.168C191.422 357.824 191.456 357.48 191.47 357.088C191.58 353.193 191.119 347.777 187.408 350.068C183.849 352.284 186.389 355.959 188.689 358.327C188.888 358.533 189.081 358.719 189.274 358.905C187.208 360.412 186.782 363.873 186.431 367.5C186.079 371.127 182.988 375.07 180.964 377.341C180.765 377.568 180.572 377.775 180.386 377.967C179.563 377.305 178.608 376.826 177.584 376.563C176.561 376.299 175.493 376.257 174.452 376.44L174.177 375.435C172.524 369.468 169.089 359.132 164.711 356.854L165.289 356.124C167.148 353.688 169.241 350.075 166.15 349.153C163.059 348.231 162.776 352.284 162.949 355.347C162.949 355.725 163.004 356.09 163.038 356.427C162.419 356.456 161.812 356.61 161.255 356.881C160.697 357.152 160.201 357.534 159.796 358.003C159.651 357.824 159.493 357.638 159.321 357.439C156.815 354.473 152.209 349.786 150.819 353.31C149.524 356.613 153.572 360.88 156.422 363.398L156.601 363.55C154.688 371.313 163.031 377.63 167.533 380.397C167.733 380.528 167.926 380.644 168.112 380.755C161.916 388.056 158.081 401.751 158.081 401.751L175.471 404.91C175.471 404.91 186.988 394.98 185.515 385.641H185.632C197.135 383.335 199.751 371.072 197.962 363.791L198.161 363.708C200.256 362.85 202.092 361.463 203.49 359.682C206.684 355.223 199.93 350.165 196.626 354.535Z" fill="black"/>
<path d="M162.068 359.558L160.037 365.504C160.037 365.504 158.908 364.706 157.483 363.44C154.633 360.949 150.599 356.654 151.879 353.351C153.256 349.8 157.875 354.486 160.388 357.48C161.393 358.664 162.068 359.558 162.068 359.558Z" fill="#007BFF"/>
<path d="M166.349 356.173C165.731 356.982 165.072 357.758 164.374 358.499C164.198 357.465 164.076 356.422 164.009 355.375C163.843 352.333 164.16 348.293 167.21 349.181C170.26 350.069 168.208 353.737 166.349 356.173Z" fill="#007BFF"/>
<path d="M192.537 357.109C192.468 359.063 192.282 360.625 192.282 360.625C191.389 359.927 190.543 359.171 189.749 358.361C187.449 355.98 184.93 352.305 188.475 350.103C192.186 347.797 192.64 353.213 192.537 357.109Z" fill="#007BFF"/>
<path d="M204.529 359.668C203.131 361.449 201.295 362.836 199.201 363.694C198.619 363.949 198.021 364.165 197.411 364.341L195.022 360.983C195.275 359.874 195.606 358.783 196.013 357.721C196.418 356.59 196.984 355.524 197.693 354.555C200.997 350.165 207.744 355.223 204.529 359.668Z" fill="#007BFF"/>
<path opacity="0.1" d="M160.388 357.466C161.393 358.65 162.068 359.531 162.068 359.531L160.037 365.477C160.037 365.477 158.908 364.679 157.483 363.412C157.8 361.509 158.585 359.714 159.768 358.189C159.975 357.941 160.181 357.7 160.388 357.466Z" fill="black"/>
<path opacity="0.1" d="M166.349 356.173C165.732 356.982 165.072 357.758 164.374 358.499C164.198 357.464 164.076 356.422 164.009 355.375C164.853 355.389 165.672 355.668 166.349 356.173Z" fill="black"/>
<path d="M176.331 379.75L171.285 381.973C170.363 381.512 169.464 381.004 168.594 380.452C163.286 377.19 152.615 368.98 159.768 359.297C166.921 349.614 172.889 366.977 175.237 375.469C175.953 378.009 176.331 379.75 176.331 379.75Z" fill="#007BFF"/>
<path opacity="0.1" d="M189.749 358.361C190.484 357.602 191.481 357.154 192.537 357.108C192.468 359.063 192.282 360.625 192.282 360.625C191.389 359.927 190.543 359.17 189.749 358.361Z" fill="black"/>
<path opacity="0.1" d="M199.201 363.695C198.619 363.95 198.021 364.166 197.411 364.342L195.022 360.983C195.275 359.874 195.606 358.784 196.013 357.721C197.555 358.623 198.691 360.866 199.201 363.695Z" fill="black"/>
<path d="M186.665 385.627C186.389 385.682 186.1 385.737 185.818 385.778C168.89 388.352 180.235 379.22 180.235 379.22C180.235 379.22 180.999 378.532 182.032 377.376C184.097 375.118 187.147 371.182 187.498 367.534C188.028 362.029 188.641 356.902 195.119 358.416C201.473 359.902 202.684 382.42 186.665 385.627Z" fill="#007BFF"/>
<path d="M186.355 427.758H154.013V436.257H186.355V427.758Z" fill="#D4DFEC"/>
<path d="M191.126 400.127H148.87V429.795H191.126V400.127Z" fill="#D4DFEC"/>
<path opacity="0.1" d="M186.355 427.758H154.013V436.257H186.355V427.758Z" fill="black"/>
<path opacity="0.1" d="M191.126 400.127H148.87V429.795H191.126V400.127Z" fill="black"/>
<path d="M188.475 427.758H156.133V436.257H188.475V427.758Z" fill="#D4DFEC"/>
<path opacity="0.1" d="M175.237 375.469C175.925 378.009 176.332 379.75 176.332 379.75L171.285 381.973C170.363 381.512 169.464 381.004 168.594 380.452C170.57 377.933 172.8 376.054 175.237 375.469Z" fill="black"/>
<path opacity="0.1" d="M186.665 385.627C186.389 385.682 186.1 385.737 185.818 385.779C168.89 388.353 180.235 379.22 180.235 379.22C180.235 379.22 180.999 378.532 182.032 377.376C185.192 379.902 186.486 382.751 186.665 385.627Z" fill="black"/>
<path d="M159.148 401.806C159.148 401.806 168.628 367.892 181.914 378.339C195.201 388.786 176.51 404.91 176.51 404.91L159.148 401.806Z" fill="#007BFF"/>
<path opacity="0.1" d="M163.933 365.677C164.519 365.677 164.993 365.202 164.993 364.617C164.993 364.032 164.519 363.557 163.933 363.557C163.348 363.557 162.873 364.032 162.873 364.617C162.873 365.202 163.348 365.677 163.933 365.677Z" fill="black"/>
<path opacity="0.1" d="M163.844 370.631C164.429 370.631 164.904 370.157 164.904 369.572C164.904 368.986 164.429 368.512 163.844 368.512C163.258 368.512 162.783 368.986 162.783 369.572C162.783 370.157 163.258 370.631 163.844 370.631Z" fill="black"/>
<path opacity="0.1" d="M194.671 366.647C195.257 366.647 195.731 366.172 195.731 365.587C195.731 365.002 195.257 364.527 194.671 364.527C194.085 364.527 193.611 365.002 193.611 365.587C193.611 366.172 194.085 366.647 194.671 366.647Z" fill="black"/>
<path opacity="0.1" d="M169.867 392.062C170.453 392.062 170.927 391.587 170.927 391.002C170.927 390.417 170.453 389.942 169.867 389.942C169.282 389.942 168.807 390.417 168.807 391.002C168.807 391.587 169.282 392.062 169.867 392.062Z" fill="black"/>
<path opacity="0.1" d="M192.461 374.884C193.047 374.884 193.521 374.41 193.521 373.824C193.521 373.239 193.047 372.765 192.461 372.765C191.876 372.765 191.401 373.239 191.401 373.824C191.401 374.41 191.876 374.884 192.461 374.884Z" fill="black"/>
<path opacity="0.1" d="M181.474 385.868C182.059 385.868 182.534 385.394 182.534 384.808C182.534 384.223 182.059 383.749 181.474 383.749C180.888 383.749 180.414 384.223 180.414 384.808C180.414 385.394 180.888 385.868 181.474 385.868Z" fill="black"/>
<path opacity="0.1" d="M167.568 367.796C168.153 367.796 168.628 367.322 168.628 366.737C168.628 366.151 168.153 365.677 167.568 365.677C166.982 365.677 166.508 366.151 166.508 366.737C166.508 367.322 166.982 367.796 167.568 367.796Z" fill="black"/>
<path opacity="0.1" d="M191.752 369.833C192.338 369.833 192.812 369.358 192.812 368.773C192.812 368.188 192.338 367.713 191.752 367.713C191.167 367.713 190.692 368.188 190.692 368.773C190.692 369.358 191.167 369.833 191.752 369.833Z" fill="black"/>
<path opacity="0.1" d="M188.117 378.071C188.703 378.071 189.177 377.596 189.177 377.011C189.177 376.426 188.703 375.951 188.117 375.951C187.532 375.951 187.057 376.426 187.057 377.011C187.057 377.596 187.532 378.071 188.117 378.071Z" fill="black"/>
<path opacity="0.1" d="M176.958 391.27C177.544 391.27 178.018 390.796 178.018 390.21C178.018 389.625 177.544 389.151 176.958 389.151C176.373 389.151 175.898 389.625 175.898 390.21C175.898 390.796 176.373 391.27 176.958 391.27Z" fill="black"/>
<path opacity="0.1" d="M174.652 386.04C175.237 386.04 175.712 385.566 175.712 384.98C175.712 384.395 175.237 383.92 174.652 383.92C174.066 383.92 173.592 384.395 173.592 384.98C173.592 385.566 174.066 386.04 174.652 386.04Z" fill="black"/>
<path opacity="0.1" d="M169.158 374.265C169.744 374.265 170.218 373.791 170.218 373.205C170.218 372.62 169.744 372.146 169.158 372.146C168.573 372.146 168.098 372.62 168.098 373.205C168.098 373.791 168.573 374.265 169.158 374.265Z" fill="black"/>
<path opacity="0.1" d="M188.475 427.758H156.133V430.862H188.475V427.758Z" fill="black"/>
<path d="M193.253 400.127H150.998V429.795H193.253V400.127Z" fill="#D4DFEC"/>
<path opacity="0.1" d="M178.376 396.053C178.962 396.053 179.436 395.579 179.436 394.993C179.436 394.408 178.962 393.934 178.376 393.934C177.791 393.934 177.316 394.408 177.316 394.993C177.316 395.579 177.791 396.053 178.376 396.053Z" fill="black"/>
<path opacity="0.1" d="M171.994 397.381C172.58 397.381 173.055 396.907 173.055 396.322C173.055 395.736 172.58 395.262 171.994 395.262C171.409 395.262 170.934 395.736 170.934 396.322C170.934 396.907 171.409 397.381 171.994 397.381Z" fill="black"/>
</g>
<defs>
<linearGradient id="paint0_linear" x1="381.996" y1="425.556" x2="381.996" y2="5.07302e-05" gradientUnits="userSpaceOnUse">
<stop offset="0.2" stop-color="#808080" stop-opacity="0.4"/>
<stop offset="0.46" stop-color="#808080" stop-opacity="0.5"/>
<stop offset="1" stop-opacity="0.6"/>
</linearGradient>
<linearGradient id="paint1_linear" x1="380.172" y1="487.101" x2="380.172" y2="101.418" gradientUnits="userSpaceOnUse">
<stop stop-color="#808080" stop-opacity="0.25"/>
<stop offset="0.54" stop-color="#808080" stop-opacity="0.12"/>
<stop offset="1" stop-color="#808080" stop-opacity="0.1"/>
</linearGradient>
<clipPath id="clip0">
<rect width="764" height="515" fill="white"/>
</clipPath>
</defs>
</svg>
