<svg width="92" height="92" viewBox="0 0 92 92" fill="none" xmlns="http://www.w3.org/2000/svg">
<path d="M88.4062 20.4486H71.2102V10.3682C71.2102 8.37363 69.593 6.77441 67.6164 6.77441H24.4016C22.407 6.77441 20.8078 8.3916 20.8078 10.3682V20.4486H3.59375C1.59922 20.4486 0 22.0658 0 24.0424V81.6322C0 83.6268 1.61719 85.226 3.59375 85.226H88.4062C90.4008 85.226 92 83.6088 92 81.6322C92 49.8096 92 25.6596 92 24.0424C92 22.0479 90.3828 20.4486 88.4062 20.4486ZM27.9953 13.9619H63.9867V20.4486H27.9953V13.9619ZM7.20547 27.6361H84.8125V35.8479L46 49.0369L7.20547 35.8658V27.6361ZM7.20547 78.0385V43.4666L44.85 56.2424C45.6047 56.4939 46.4133 56.4939 47.168 56.2424L84.8125 43.4666V78.0385H7.20547Z" fill="url(#paint0_linear)"/>
<defs>
<linearGradient id="paint0_linear" x1="11.9881" y1="93.3731" x2="80.0119" y2="12.3054" gradientUnits="userSpaceOnUse">
<stop stop-color="#007BFF"/>
<stop offset="1" stop-color="#0C4985"/>
</linearGradient>
</defs>
</svg>
