<svg width="874" height="779" viewBox="0 0 874 779" fill="none" xmlns="http://www.w3.org/2000/svg">
<g clip-path="url(#clip0)">
<path d="M780 633C745.837 627.996 712.983 623.683 681.437 620.06L693.911 599.874C689.706 598.632 671.228 610.139 671.228 610.139L687.603 551.452C666.453 553.49 655.691 613.44 655.691 613.44L632.064 593.045L643.5 615.904C546.95 605.938 463.566 602.023 393.429 601.572L404.106 584.294C399.901 583.052 381.423 594.56 381.423 594.56L397.798 535.873C376.648 537.91 365.886 597.861 365.886 597.861L342.258 577.466L354.372 601.678C295.574 602.39 247.624 605.529 210.614 609.188C221.414 582.246 258.094 556.745 258.094 556.745C230.084 563.59 215.39 575.209 207.711 586.069C207.124 552.739 211.073 490.969 240.409 422.697C240.409 422.697 182.5 527.903 189.877 598.736L190.758 611.312C141.677 616.968 117 622.976 117 622.976L780 633Z" fill="#3F3D56"/>
<path d="M469.54 175.105V600.237C469.535 605.301 467.52 610.156 463.938 613.736C460.356 617.316 455.499 619.328 450.435 619.329H277.846C275.337 619.334 272.852 618.843 270.533 617.885C268.214 616.927 266.107 615.521 264.332 613.748C262.557 611.974 261.15 609.868 260.19 607.549C259.231 605.231 258.739 602.746 258.741 600.237V175.105C258.741 172.596 259.235 170.112 260.195 167.794C261.155 165.476 262.563 163.37 264.337 161.595C266.111 159.821 268.217 158.414 270.535 157.454C272.853 156.494 275.337 156 277.846 156H303.674V159.312C303.674 163.484 305.33 167.486 308.28 170.436C311.229 173.387 315.23 175.045 319.402 175.046H407.181C410.539 175.054 413.81 173.977 416.508 171.977C417.053 171.58 417.57 171.146 418.055 170.678C419.592 169.211 420.814 167.447 421.649 165.493C422.483 163.54 422.912 161.437 422.909 159.312V156H450.435C452.944 155.999 455.429 156.493 457.747 157.453C460.066 158.413 462.172 159.82 463.946 161.594C465.72 163.368 467.128 165.475 468.087 167.793C469.047 170.111 469.541 172.596 469.54 175.105Z" fill="#3F3D56"/>
<path d="M306.822 231.424C309.358 231.424 311.413 229.369 311.413 226.833C311.413 224.298 309.358 222.242 306.822 222.242C304.287 222.242 302.231 224.298 302.231 226.833C302.231 229.369 304.287 231.424 306.822 231.424Z" fill="#F2F2F2"/>
<path d="M418.056 170.678C417.57 171.146 417.053 171.58 416.508 171.977C422.13 181.872 429.748 190.49 438.877 197.286C448.007 204.082 458.448 208.906 469.54 211.453V209.407C458.748 206.861 448.6 202.105 439.739 195.439C430.877 188.773 423.494 180.342 418.056 170.678Z" fill="#007BFF"/>
<path d="M378.829 175.046H376.677C384.314 194.451 396.91 211.511 413.206 224.522C429.502 237.534 448.927 246.04 469.54 249.192V247.159C449.464 244.041 430.544 235.753 414.639 223.11C398.735 210.466 386.394 193.903 378.829 175.046Z" fill="#1863C0"/>
<path d="M339.202 175.046H337.129C354.464 235.215 406.768 280.004 469.54 287.278V285.277C407.857 278.037 356.451 234.1 339.202 175.046Z" fill="#007BFF"/>
<path d="M291.737 260.822H290.542V259.627H290.309V260.822H289.114V261.055H290.309V262.25H290.542V261.055H291.737V260.822Z" fill="#F2F2F2"/>
<path d="M372.408 201.138H371.213V199.943H370.98V201.138H369.784V201.371H370.98V202.566H371.213V201.371H372.408V201.138Z" fill="#F2F2F2"/>
<path d="M303.543 308.044H302.348V306.849H302.115V308.044H300.919V308.277H302.115V309.472H302.348V308.277H303.543V308.044Z" fill="#F2F2F2"/>
<path d="M358.635 273.283H357.44V272.088H357.207V273.283H356.011V273.517H357.207V274.712H357.44V273.517H358.635V273.283Z" fill="#F2F2F2"/>
<path d="M437.337 294.927H436.142V293.732H435.91V294.927H434.714V295.16H435.91V296.355H436.142V295.16H437.337V294.927Z" fill="#F2F2F2"/>
<path d="M423.565 240.607C425.014 240.607 426.188 239.432 426.188 237.983C426.188 236.534 425.014 235.36 423.565 235.36C422.116 235.36 420.941 236.534 420.941 237.983C420.941 239.432 422.116 240.607 423.565 240.607Z" fill="#BDDBFF"/>
<path d="M329.58 299.503L328.092 299.733C328.557 302.71 328.925 305.754 329.194 308.764L330.695 308.633C330.427 305.583 330.053 302.514 329.58 299.503Z" fill="#E6E6E6"/>
<path d="M325.508 281.572L324.065 282.011C324.937 284.897 325.717 287.855 326.38 290.8L327.856 290.465C327.18 287.488 326.386 284.497 325.508 281.572Z" fill="#E6E6E6"/>
<path d="M319.008 264.375L317.637 265.005C318.897 267.753 320.077 270.573 321.146 273.393L322.556 272.862C321.474 270.009 320.287 267.149 319.008 264.375Z" fill="#E6E6E6"/>
<path d="M310.22 248.254L308.947 249.061C310.567 251.605 312.122 254.242 313.564 256.885L314.889 256.164C313.433 253.488 311.859 250.825 310.22 248.254Z" fill="#E6E6E6"/>
<path d="M299.293 233.477L298.145 234.455C300.1 236.75 302.002 239.151 303.799 241.577L305.006 240.679C303.195 238.226 301.274 235.799 299.293 233.477Z" fill="#E6E6E6"/>
<path d="M286.451 220.321L285.448 221.442C287.704 223.456 289.914 225.574 292.02 227.732L293.102 226.676C290.97 224.492 288.734 222.354 286.451 220.321Z" fill="#E6E6E6"/>
<path d="M271.944 209.027L271.098 210.273C273.603 211.958 276.082 213.755 278.463 215.612L279.394 214.424C276.981 212.549 274.475 210.732 271.944 209.027Z" fill="#E6E6E6"/>
<path d="M258.741 201.183V202.888C260.309 203.708 261.863 204.567 263.385 205.446L264.139 204.141C262.368 203.117 260.569 202.131 258.741 201.183Z" fill="#E6E6E6"/>
<path d="M329.24 441.172C329.484 439.705 329.708 438.208 329.905 436.722L331.4 436.92C331.201 438.423 330.974 439.936 330.727 441.42L329.24 441.172Z" fill="#E6E6E6"/>
<path d="M325.036 458.867L326.477 459.316C327.382 456.401 328.2 453.415 328.909 450.441L327.44 450.093C326.738 453.036 325.934 455.984 325.036 458.867Z" fill="#E6E6E6"/>
<path d="M318.451 475.809L319.819 476.45C321.12 473.69 322.338 470.847 323.442 468L322.035 467.451C320.943 470.267 319.739 473.08 318.451 475.809Z" fill="#E6E6E6"/>
<path d="M309.589 491.703L310.854 492.524C312.521 489.966 314.122 487.315 315.611 484.647L314.296 483.909C312.826 486.547 311.239 489.168 309.589 491.703Z" fill="#E6E6E6"/>
<path d="M298.625 506.223L299.768 507.213C301.775 504.899 303.72 502.492 305.563 500.057L304.356 499.154C302.538 501.56 300.612 503.938 298.625 506.223Z" fill="#E6E6E6"/>
<path d="M285.787 519.107L286.78 520.241C289.086 518.229 291.341 516.106 293.496 513.95L292.43 512.881C290.299 515.016 288.063 517.109 285.787 519.107Z" fill="#E6E6E6"/>
<path d="M271.323 530.119L272.156 531.381C274.703 529.7 277.232 527.907 279.658 526.061L278.746 524.857C276.343 526.688 273.845 528.46 271.323 530.119Z" fill="#E6E6E6"/>
<path d="M264.31 536.172C262.486 537.202 260.624 538.199 258.741 539.143V537.451C260.368 536.625 261.981 535.752 263.562 534.867L264.31 536.172Z" fill="#E6E6E6"/>
<path d="M329.682 318.068L331.19 318.041C331.217 319.563 331.219 321.093 331.196 322.59L329.688 322.566C329.711 321.087 329.709 319.573 329.682 318.068Z" fill="#E6E6E6"/>
<path d="M265.366 353.83H419.63C431.11 353.83 442.12 358.39 450.238 366.508C458.356 374.626 462.916 385.636 462.916 397.117V402.847H308.652C297.172 402.847 286.162 398.286 278.044 390.168C269.926 382.05 265.366 371.04 265.366 359.56V353.83Z" fill="white"/>
<path d="M367.745 618.727C367.594 618.481 364.045 612.555 362.815 600.25C361.686 588.96 362.412 569.931 372.281 543.387C390.976 493.102 367.972 452.528 367.737 452.124L368.872 451.466C368.931 451.568 374.867 461.913 378.374 478.385C383.008 500.224 381.32 522.931 373.51 543.845C354.847 594.045 368.722 617.809 368.864 618.043L367.745 618.727Z" fill="#F2F2F2"/>
<path d="M360.434 449.172C365.143 449.172 368.96 445.354 368.96 440.645C368.96 435.936 365.143 432.119 360.434 432.119C355.725 432.119 351.908 435.936 351.908 440.645C351.908 445.354 355.725 449.172 360.434 449.172Z" fill="#007BFF"/>
<path d="M387.324 480.653C392.033 480.653 395.85 476.836 395.85 472.127C395.85 467.418 392.033 463.601 387.324 463.601C382.615 463.601 378.798 467.418 378.798 472.127C378.798 476.836 382.615 480.653 387.324 480.653Z" fill="#F2F2F2"/>
<path d="M368.96 501.641C373.669 501.641 377.486 497.823 377.486 493.114C377.486 488.406 373.669 484.588 368.96 484.588C364.251 484.588 360.434 488.406 360.434 493.114C360.434 497.823 364.251 501.641 368.96 501.641Z" fill="#007BFF"/>
<path d="M391.259 519.349C395.968 519.349 399.786 515.532 399.786 510.823C399.786 506.114 395.968 502.297 391.259 502.297C386.551 502.297 382.733 506.114 382.733 510.823C382.733 515.532 386.551 519.349 391.259 519.349Z" fill="#007BFF"/>
<path d="M362.402 546.895C367.111 546.895 370.928 543.078 370.928 538.369C370.928 533.66 367.111 529.843 362.402 529.843C357.693 529.843 353.876 533.66 353.876 538.369C353.876 543.078 357.693 546.895 362.402 546.895Z" fill="#F2F2F2"/>
<path d="M372.895 619.04C372.895 619.04 364.369 598.053 389.948 582.312L372.895 619.04Z" fill="#F2F2F2"/>
<path d="M362.41 618.66C362.41 618.66 358.529 596.341 328.496 596.532L362.41 618.66Z" fill="#F2F2F2"/>
<path opacity="0.2" d="M328.466 430.807C357.443 430.807 380.934 407.316 380.934 378.338C380.934 349.36 357.443 325.869 328.466 325.869C299.488 325.869 275.997 349.36 275.997 378.338C275.997 407.316 299.488 430.807 328.466 430.807Z" fill="#007BFF"/>
<path opacity="0.2" d="M328.466 415.288C348.872 415.288 365.415 398.745 365.415 378.338C365.415 357.931 348.872 341.388 328.466 341.388C308.059 341.388 291.516 357.931 291.516 378.338C291.516 398.745 308.059 415.288 328.466 415.288Z" fill="#007BFF"/>
<path d="M328.466 402.725C341.934 402.725 352.852 391.807 352.852 378.338C352.852 364.87 341.934 353.951 328.466 353.951C314.997 353.951 304.079 364.87 304.079 378.338C304.079 391.807 314.997 402.725 328.466 402.725Z" fill="#007BFF"/>
<path d="M332.899 373.078C332.9 372.33 332.71 371.594 332.35 370.938C331.989 370.283 331.468 369.729 330.835 369.329C330.203 368.929 329.479 368.696 328.732 368.651C327.985 368.606 327.239 368.751 326.563 369.072C325.887 369.393 325.304 369.88 324.867 370.487C324.429 371.094 324.153 371.802 324.063 372.545C323.974 373.288 324.074 374.042 324.353 374.736C324.633 375.43 325.084 376.042 325.664 376.514L324.031 387.945H332.899L331.266 376.514C331.777 376.099 332.189 375.575 332.471 374.981C332.754 374.386 332.9 373.736 332.899 373.078Z" fill="white"/>
<path d="M573.547 190.958C573.547 190.958 558.92 177.844 539.249 202.558C519.578 227.273 488.812 239.378 481.75 248.962C481.75 248.962 511.004 236.856 521.092 231.813C531.179 226.769 530.675 227.778 530.675 227.778C530.675 227.778 517.057 237.361 514.535 246.944C512.013 256.527 514.03 264.597 509.491 274.181C504.951 283.764 596.244 280.738 596.244 280.738C596.244 280.738 605.322 265.102 602.8 248.962C600.279 232.821 601.792 192.975 573.547 190.958Z" fill="#2F2E41"/>
<path d="M545.881 232.213C545.881 232.213 549.061 254.477 535.43 259.475C521.799 264.474 526.797 271.289 526.797 271.289L547.244 281.286L569.054 274.47L576.324 263.565C576.324 263.565 564.51 260.839 567.691 252.66C570.871 244.481 571.78 241.755 571.78 241.755L545.881 232.213Z" fill="#FFB9B9"/>
<path opacity="0.1" d="M545.881 232.213C545.881 232.213 549.061 254.477 535.43 259.475C521.799 264.474 526.797 271.289 526.797 271.289L547.244 281.286L569.054 274.47L576.324 263.565C576.324 263.565 564.51 260.839 567.691 252.66C570.871 244.481 571.78 241.755 571.78 241.755L545.881 232.213Z" fill="black"/>
<path d="M603.132 295.826C603.132 295.826 599.951 337.628 600.86 339.446C601.768 341.263 600.86 404.422 600.86 404.422C600.86 404.422 607.221 438.5 599.042 440.318C590.864 442.135 592.681 402.15 592.681 402.15L584.502 349.442L585.411 297.189L603.132 295.826Z" fill="#FFB9B9"/>
<path opacity="0.1" d="M603.132 295.826C603.132 295.826 599.951 337.628 600.86 339.446C601.768 341.263 600.86 404.422 600.86 404.422C600.86 404.422 607.221 438.5 599.042 440.318C590.864 442.135 592.681 402.15 592.681 402.15L584.502 349.442L585.411 297.189L603.132 295.826Z" fill="black"/>
<path d="M514.529 421.688C514.529 421.688 499.535 478.485 499.989 506.202C500.444 533.919 506.35 572.541 506.35 572.541C506.35 572.541 507.259 589.353 505.896 591.171C504.533 592.988 512.712 600.713 512.712 600.713L521.345 595.715L524.525 592.08V588.899C524.525 588.899 519.527 573.45 523.617 561.182C527.706 548.914 529.978 518.016 525.888 508.474L554.059 424.869L514.529 421.688Z" fill="#FFB9B9"/>
<path d="M513.62 593.443C513.62 593.443 508.168 586.627 504.533 588.899C500.898 591.171 494.991 606.62 494.991 606.62C494.991 606.62 474.544 626.158 489.084 627.067C503.624 627.975 509.985 622.977 511.803 619.342C513.62 615.707 530.432 606.165 530.432 606.165C530.432 606.165 528.615 588.899 525.888 588.445C523.162 587.99 519.073 595.26 519.073 595.26L513.62 593.443Z" fill="#2F2E41"/>
<path d="M564.056 425.323V481.666C564.108 488.502 564.564 495.33 565.419 502.113C566.782 512.109 557.694 586.627 557.694 586.627L558.603 599.804L569.963 598.895L571.326 587.536L587.683 537.554C587.683 537.554 593.135 507.111 590.409 495.752C587.683 484.392 604.495 411.692 604.495 411.692L564.056 425.323Z" fill="#FFB9B9"/>
<path d="M554.968 596.623L558.333 595.892C558.333 595.892 560.875 590.262 564.056 591.625C566.294 592.658 568.414 593.928 570.38 595.415L571.78 597.987C571.78 597.987 574.961 604.802 579.05 609.346C583.139 613.89 587.683 623.886 580.867 624.795C574.052 625.703 564.964 626.158 562.238 623.886C559.512 621.614 561.329 617.979 558.603 617.07C555.877 616.162 553.605 613.435 554.06 612.527C554.514 611.618 554.968 596.623 554.968 596.623Z" fill="#2F2E41"/>
<path d="M564.056 247.863C575.208 247.863 584.25 238.822 584.25 227.669C584.25 216.516 575.208 207.475 564.056 207.475C552.903 207.475 543.862 216.516 543.862 227.669C543.862 238.822 552.903 247.863 564.056 247.863Z" fill="#FFB9B9"/>
<path d="M525.888 263.111L531.89 261.015C531.89 261.015 529.523 264.928 542.246 267.2C554.968 269.472 568.144 270.276 574.051 262.831C574.051 262.831 576.324 261.747 579.504 264.928C582.685 268.109 584.502 267.2 584.502 267.2L582.23 279.014L577.687 300.824L571.78 317.181L554.968 313.546L536.793 300.369L529.978 282.649V266.291L525.888 263.111Z" fill="#007BFF"/>
<path d="M581.322 269.472L585.866 266.291C585.866 266.291 601.314 269.017 602.223 276.287L590.409 299.006C592.819 305.328 592.656 312.342 589.955 318.544C585.411 328.995 585.866 331.267 585.866 331.267L582.685 344.898L524.98 349.442C524.98 349.442 522.708 343.99 521.799 343.081C520.89 342.172 520.89 338.991 521.799 338.991C522.708 338.991 521.799 337.628 520.89 336.265C519.982 334.902 519.527 334.448 520.89 332.63C522.254 330.813 518.619 314.455 518.619 314.455V296.734L503.17 276.287C503.17 276.287 508.622 268.109 511.349 267.2C514.075 266.291 527.043 262.707 527.043 262.707L529.978 267.028L534.067 299.915L539.974 319.908L564.845 315.682L574.506 299.461L580.867 280.377L581.322 269.472Z" fill="#007BFF"/>
<path d="M598.588 273.561L602.223 276.287C602.223 276.287 605.403 301.733 604.495 303.55C603.586 305.368 587.683 307.185 587.229 306.276C586.774 305.368 598.588 273.561 598.588 273.561Z" fill="#007BFF"/>
<path d="M523.617 260.839L528.16 290.828C528.16 290.828 524.071 335.356 524.98 344.444L525.888 347.17C525.888 347.17 524.071 346.262 523.617 348.079C523.162 349.897 523.617 355.803 523.617 355.803C523.617 355.803 520.89 358.53 519.982 373.524C519.073 388.519 508.168 424.414 512.257 425.778C516.347 427.141 540.883 433.956 554.059 432.593C567.236 431.23 614.491 415.327 614.037 411.237C613.582 407.148 590.864 349.442 590.864 349.442C590.864 349.442 586.774 342.627 586.774 341.718C586.774 340.809 592.227 337.174 590.864 333.539C589.501 329.904 582.231 291.736 582.231 291.736L587.229 264.474L580.413 262.656L575.415 289.01C575.415 289.01 555.877 298.552 535.43 289.919L530.887 259.021L523.617 260.839Z" fill="#2F2E41"/>
<path d="M545.478 213.176C545.478 213.176 579.101 236.35 588.189 225.899C597.276 215.448 572.286 206.361 572.286 206.361L551.385 204.089L545.478 213.176Z" fill="#2F2E41"/>
<path d="M493.235 459.693C496.696 462.269 500.978 463.495 505.278 463.14C509.577 462.785 513.6 460.874 516.592 457.766C519.584 454.657 521.339 450.564 521.529 446.254C521.719 441.944 520.33 437.712 517.624 434.352C514.917 430.993 511.078 428.735 506.826 428.004C502.574 427.272 498.201 428.117 494.527 430.379C490.853 432.641 488.13 436.165 486.869 440.291C485.607 444.417 485.894 448.861 487.675 452.791L441.301 491.403L435.127 484.074L432.352 485.93L429.265 482.266L431.802 480.128L428.714 476.464L424.769 479.789L426.668 482.044L422.441 485.606L420.541 483.351L414.34 488.576L417.19 491.958L419.444 490.058L422.532 493.723L419.713 496.097L425.413 502.862L418.648 508.562L425.535 516.736L493.235 459.693ZM504.814 433.791C507.125 433.989 509.326 434.867 511.138 436.315C512.95 437.764 514.291 439.716 514.993 441.927C515.695 444.138 515.726 446.507 515.081 448.735C514.437 450.964 513.146 452.951 511.372 454.445C509.598 455.94 507.421 456.875 505.116 457.132C502.811 457.389 500.481 456.957 498.422 455.89C496.362 454.823 494.665 453.17 493.545 451.138C492.425 449.107 491.933 446.789 492.13 444.478C492.395 441.379 493.88 438.512 496.259 436.508C498.638 434.504 501.715 433.527 504.814 433.791V433.791Z" fill="#007BFF"/>
<path d="M499.989 301.278C499.989 301.278 503.17 343.081 502.261 344.898C501.352 346.716 502.261 409.874 502.261 409.874C502.261 409.874 495.9 443.953 504.079 445.77C512.257 447.588 510.44 407.602 510.44 407.602L518.619 354.895L517.71 302.641L499.989 301.278Z" fill="#FFB9B9"/>
<path d="M506.805 274.924L503.17 276.287C503.17 276.287 496.354 304.913 498.172 304.913C499.989 304.913 521.799 307.639 521.799 306.731C521.799 305.822 517.71 283.557 517.71 283.557L506.805 274.924Z" fill="#007BFF"/>
</g>
<path opacity="0.2" d="M125.469 104.938C154.446 104.938 177.937 81.4471 177.937 52.4692C177.937 23.4912 154.446 0 125.469 0C96.491 0 73 23.4912 73 52.4692C73 81.4471 96.491 104.938 125.469 104.938Z" fill="#007BFF"/>
<path opacity="0.2" d="M666.5 779C685.002 779 700 764.002 700 745.5C700 726.998 685.002 712 666.5 712C647.998 712 633 726.998 633 745.5C633 764.002 647.998 779 666.5 779Z" fill="#007BFF"/>
<path opacity="0.2" d="M843 393C860.121 393 874 379.121 874 362C874 344.879 860.121 331 843 331C825.879 331 812 344.879 812 362C812 379.121 825.879 393 843 393Z" fill="#007BFF"/>
<path opacity="0.2" d="M28 355C43.464 355 56 342.016 56 326C56 309.984 43.464 297 28 297C12.536 297 0 309.984 0 326C0 342.016 12.536 355 28 355Z" fill="#007BFF"/>
<path opacity="0.2" d="M125 81C141.016 81 154 68.0163 154 52C154 35.9837 141.016 23 125 23C108.984 23 96 35.9837 96 52C96 68.0163 108.984 81 125 81Z" fill="#007BFF"/>
<path opacity="0.2" d="M666 763C675.941 763 684 754.941 684 745C684 735.059 675.941 727 666 727C656.059 727 648 735.059 648 745C648 754.941 656.059 763 666 763Z" fill="#007BFF"/>
<path opacity="0.2" d="M657.5 115C671.031 115 682 104.031 682 90.5C682 76.969 671.031 66 657.5 66C643.969 66 633 76.969 633 90.5C633 104.031 643.969 115 657.5 115Z" fill="#007BFF"/>
<path opacity="0.2" d="M843 379C852.389 379 860 371.389 860 362C860 352.611 852.389 345 843 345C833.611 345 826 352.611 826 362C826 371.389 833.611 379 843 379Z" fill="#007BFF"/>
<path opacity="0.2" d="M27.5 342C36.0604 342 43 334.837 43 326C43 317.163 36.0604 310 27.5 310C18.9396 310 12 317.163 12 326C12 334.837 18.9396 342 27.5 342Z" fill="#007BFF"/>
<defs>
<clipPath id="clip0">
<rect width="663" height="477" fill="white" transform="translate(117 156)"/>
</clipPath>
</defs>
</svg>
