<svg width="92" height="92" viewBox="0 0 92 92" fill="none" xmlns="http://www.w3.org/2000/svg">
<g clip-path="url(#clip0)">
<path d="M90.1808 49.6669C90.1808 38.9605 82.3637 30.0468 72.1376 28.33V3.59358C72.1376 1.60885 70.5286 0 68.5441 0H5.41292C3.42836 0 1.81934 1.60885 1.81934 3.59358V74.7465C1.81934 76.7312 3.42836 78.3401 5.41292 78.3401H55.434V88.4021C55.434 91.2137 58.5298 92.9397 60.9223 91.4556L68.5439 86.7262L76.1655 91.4556C78.5337 92.9253 81.6538 91.24 81.6538 88.4021V66.8672C86.8329 62.9103 90.1808 56.6728 90.1808 49.6669ZM9.0065 71.1529V7.18716H64.9505V28.33C60.0242 29.1571 55.6575 31.6537 52.4542 35.2171H21.1595C19.1747 35.2171 17.5659 36.8259 17.5659 38.8107C17.5659 40.7954 19.1747 42.4043 21.1595 42.4043H48.1623C47.3506 44.6754 46.9069 47.1201 46.9069 49.6669C46.9069 51.2978 47.0895 52.8867 47.4332 54.4154H21.1595C19.1747 54.4154 17.5659 56.0243 17.5659 58.009C17.5659 59.9938 19.1747 61.6026 21.1595 61.6026H50.5064C51.8458 63.6199 53.5139 65.4001 55.434 66.8672V71.1529H9.0065ZM74.4668 81.943L70.4388 79.4435C69.2782 78.7233 67.8097 78.7233 66.6492 79.4435L62.6211 81.943V70.4797C66.4774 71.5786 70.6093 71.5789 74.4668 70.4797V81.943ZM68.5441 64.1165C60.5764 64.1165 54.0943 57.6344 54.0943 49.6669C54.0943 41.6992 60.5764 35.2171 68.5441 35.2171C76.5116 35.2171 82.9937 41.6992 82.9937 49.6669C82.9937 57.6344 76.5116 64.1165 68.5441 64.1165ZM26.1747 19.6123C26.1747 17.6276 27.7835 16.0187 29.7682 16.0187H44.1886C46.1733 16.0187 47.7821 17.6276 47.7821 19.6123C47.7821 21.5971 46.1733 23.2059 44.1886 23.2059H29.7682C27.7837 23.2059 26.1747 21.5971 26.1747 19.6123Z" fill="url(#paint0_linear)"/>
</g>
<defs>
<linearGradient id="paint0_linear" x1="2" y1="92" x2="90" y2="1.08968e-06" gradientUnits="userSpaceOnUse">
<stop stop-color="#007BFF"/>
<stop offset="1" stop-color="#0C4985"/>
</linearGradient>
<clipPath id="clip0">
<rect width="92" height="92" fill="white"/>
</clipPath>
</defs>
</svg>
