<svg width="24" height="24" viewBox="0 0 24 24" fill="none" xmlns="http://www.w3.org/2000/svg">
<g id="Icon/contact-book">
<path id="Path 2" d="M8 3V21" stroke="white" stroke-linecap="round"/>
<path id="Rectangle 2" fill-rule="evenodd" clip-rule="evenodd" d="M20 3V21H6C4.89543 21 4 20.1046 4 19V5C4 3.89543 4.89543 3 6 3H20Z" stroke="white" stroke-linecap="round" stroke-linejoin="round"/>
<path id="Stroke 1" d="M8 16.9998C8 14.9998 11.3333 15.3332 12.6667 13.9998C13.3333 13.3332 11.3333 13.3332 11.3333 9.99984C11.3333 7.77784 12.222 6.6665 14 6.6665C15.778 6.6665 16.6667 7.77784 16.6667 9.99984C16.6667 13.3332 14.6667 13.3332 15.3333 13.9998C16.6667 15.3332 20 14.9998 20 16.9998" stroke="white" stroke-linecap="round"/>
</g>
</svg>
