<svg width="92" height="92" viewBox="0 0 92 92" fill="none" xmlns="http://www.w3.org/2000/svg">
<g clip-path="url(#clip0)">
<path d="M17.9688 63.6087H3.59375C1.61719 63.6087 0 65.2259 0 67.2025V88.4056C0 90.3822 1.61719 91.9994 3.59375 91.9994H17.9688C19.9453 91.9994 21.5625 90.3822 21.5625 88.4056V67.2025C21.5625 65.2259 19.9453 63.6087 17.9688 63.6087ZM14.375 84.8119H7.1875V70.7962H14.375V84.8119ZM48.282 42.4056H33.907C31.9305 42.4056 30.3133 44.0228 30.3133 45.9994V88.4056C30.3133 90.3822 31.9305 91.9994 33.907 91.9994H48.282C50.2586 91.9994 51.8758 90.3822 51.8758 88.4056V45.9994C51.8758 44.0228 50.2766 42.4056 48.282 42.4056ZM44.6883 84.8119H37.5008V49.5931H44.6883V84.8119ZM91.3352 24.329L75.1453 1.50873C73.6719 -0.557674 70.6891 -0.46783 69.2875 1.50873L53.0977 24.3111C51.4086 26.683 53.1156 29.9892 56.0266 29.9892H61.4352V88.3876C61.4352 90.3642 63.0523 91.9814 65.0289 91.9814H79.4039C81.3805 91.9814 82.9977 90.3642 82.9977 88.3876V30.0072H88.4062C91.3172 30.0072 93.0242 26.7009 91.3352 24.329ZM79.4039 22.8197C77.4273 22.8197 75.8102 24.4369 75.8102 26.4134V84.8119H68.6227V26.4134C68.6227 24.4369 67.0055 22.8197 65.0289 22.8197H62.9805L72.2164 9.81029L81.4523 22.8197H79.4039Z" fill="url(#paint0_linear)"/>
</g>
<defs>
<linearGradient id="paint0_linear" x1="5.48363e-06" y1="92" x2="92" y2="-7.39059e-06" gradientUnits="userSpaceOnUse">
<stop stop-color="#007BFF"/>
<stop offset="1" stop-color="#0C4985"/>
</linearGradient>
<clipPath id="clip0">
<rect width="92" height="92" fill="white"/>
</clipPath>
</defs>
</svg>
