<svg width="44" height="44" viewBox="0 0 44 44" fill="none" xmlns="http://www.w3.org/2000/svg">
<path fill-rule="evenodd" clip-rule="evenodd" d="M29.3337 16.5001C29.3337 18.445 28.561 20.3103 27.1858 21.6855C25.8105 23.0608 23.9452 23.8334 22.0003 23.8334C20.0554 23.8334 18.1901 23.0608 16.8149 21.6855C15.4396 20.3103 14.667 18.445 14.667 16.5001C14.667 14.5552 15.4396 12.6899 16.8149 11.3146C18.1901 9.93936 20.0554 9.16675 22.0003 9.16675C23.9452 9.16675 25.8105 9.93936 27.1858 11.3146C28.561 12.6899 29.3337 14.5552 29.3337 16.5001V16.5001ZM25.667 16.5001C25.667 17.4725 25.2807 18.4052 24.593 19.0928C23.9054 19.7804 22.9728 20.1667 22.0003 20.1667C21.0279 20.1667 20.0952 19.7804 19.4076 19.0928C18.72 18.4052 18.3337 17.4725 18.3337 16.5001C18.3337 15.5276 18.72 14.595 19.4076 13.9074C20.0952 13.2197 21.0279 12.8334 22.0003 12.8334C22.9728 12.8334 23.9054 13.2197 24.593 13.9074C25.2807 14.595 25.667 15.5276 25.667 16.5001V16.5001Z" fill="#2D2D2D"/>
<path fill-rule="evenodd" clip-rule="evenodd" d="M22.0002 1.83337C10.8627 1.83337 1.8335 10.8625 1.8335 22C1.8335 33.1375 10.8627 42.1667 22.0002 42.1667C33.1377 42.1667 42.1668 33.1375 42.1668 22C42.1668 10.8625 33.1377 1.83337 22.0002 1.83337ZM5.50016 22C5.50016 25.8317 6.80733 29.359 8.99816 32.1604C10.5368 30.1399 12.5216 28.5024 14.7978 27.3759C17.0739 26.2495 19.5797 25.6645 22.1193 25.6667C24.6261 25.6643 27.1003 26.2342 29.3535 27.3328C31.6067 28.4314 33.5794 30.0299 35.1213 32.0064C36.7098 29.923 37.7794 27.4913 38.2415 24.9125C38.7036 22.3336 38.545 19.6819 37.7787 17.1765C37.0125 14.6712 35.6607 12.3843 33.8352 10.5051C32.0097 8.62592 29.763 7.20845 27.2809 6.36997C24.7988 5.5315 22.1527 5.29612 19.5616 5.68332C16.9705 6.07053 14.5088 7.06917 12.3802 8.59664C10.2517 10.1241 8.51748 12.1365 7.32108 14.4672C6.12468 16.798 5.50049 19.3801 5.50016 22V22ZM22.0002 38.5C18.2124 38.5057 14.539 37.2027 11.6015 34.8114C12.7839 33.1187 14.3576 31.7367 16.1888 30.783C18.0201 29.8292 20.0546 29.3319 22.1193 29.3334C24.1583 29.3317 26.1682 29.8166 27.9822 30.7476C29.7962 31.6787 31.3618 33.0291 32.5492 34.6867C29.5889 37.1557 25.8549 38.5054 22.0002 38.5V38.5Z" fill="#2D2D2D"/>
</svg>
