<svg width="30" height="25" viewBox="0 0 30 25" fill="none" xmlns="http://www.w3.org/2000/svg">
<path d="M27.0522 16.0526L24.7826 15.1842V14.2895L25.1087 13.75C25.7472 12.7106 26.086 11.5123 26.087 10.2895V9.21053C26.087 8.16362 25.6747 7.15959 24.9409 6.41932C24.207 5.67904 23.2117 5.26316 22.1739 5.26316C21.1361 5.26316 20.1408 5.67904 19.407 6.41932C18.6731 7.15959 18.2609 8.16362 18.2609 9.21053V10.2895C18.2618 11.5123 18.6006 12.7106 19.2391 13.75L19.5652 14.2895V15.1842L18.2609 15.6711C18.0189 15.5279 17.7659 15.4047 17.5043 15.3026L14.3087 13.9868V11.6184C15.1687 10.079 15.6308 8.3459 15.6522 6.57895V5.26316C15.6522 3.86728 15.1025 2.52858 14.124 1.54154C13.1456 0.55451 11.8185 0 10.4348 0C9.05104 0 7.72398 0.55451 6.74553 1.54154C5.76708 2.52858 5.21739 3.86728 5.21739 5.26316V6.57895C5.22025 8.35585 5.66897 10.1031 6.52174 11.6579V14.0789L3.32609 15.3947C2.36231 15.7727 1.53159 16.431 0.939389 17.2861C0.34719 18.1411 0.0202237 19.1545 0 20.1974L0 23.6842C0 24.0332 0.137422 24.3679 0.382035 24.6146C0.626647 24.8614 0.958413 25 1.30435 25H28.6957C29.0416 25 29.3734 24.8614 29.618 24.6146C29.8626 24.3679 30 24.0332 30 23.6842V20.3553C29.9992 19.4211 29.7168 18.5093 29.1903 17.7408C28.6638 16.9724 27.9181 16.3836 27.0522 16.0526ZM20.8696 8.88158C20.8696 8.53261 21.007 8.19793 21.2516 7.95118C21.4962 7.70442 21.828 7.56579 22.1739 7.56579C22.5198 7.56579 22.8516 7.70442 23.0962 7.95118C23.3408 8.19793 23.4783 8.53261 23.4783 8.88158V10.7763C23.478 11.4488 23.3073 12.1101 22.9826 12.6974L22.5522 13.4868C22.524 13.5388 22.4825 13.582 22.432 13.6121C22.3815 13.6423 22.3239 13.6581 22.2652 13.6579H22.0826C22.0239 13.6581 21.9663 13.6423 21.9158 13.6121C21.8653 13.582 21.8238 13.5388 21.7957 13.4868L21.3652 12.6974C21.0405 12.1101 20.8699 11.4488 20.8696 10.7763V8.88158ZM7.82609 5.06579C7.82609 4.36785 8.10093 3.6985 8.59016 3.20498C9.07938 2.71147 9.74291 2.43421 10.4348 2.43421C11.1267 2.43421 11.7902 2.71147 12.2794 3.20498C12.7686 3.6985 13.0435 4.36785 13.0435 5.06579V6.94737C13.0432 8.24656 12.7251 9.5256 12.1174 10.6711L11.7391 11.4737C11.6282 11.6838 11.4629 11.8596 11.2608 11.9824C11.0586 12.1052 10.8273 12.1704 10.5913 12.1711H10.3304C10.0857 12.1802 9.84333 12.1196 9.63111 11.9963C9.41889 11.873 9.24538 11.6919 9.13043 11.4737L8.7 10.6711C8.11039 9.5209 7.81027 8.24211 7.82609 6.94737V5.06579ZM18.2609 22.3684H2.6087V20.0658C2.60819 19.5387 2.76458 19.0237 3.0576 18.5873C3.35063 18.151 3.76679 17.8134 4.25217 17.6184L9.13043 15.6842V14.3684C9.54871 14.5216 9.98981 14.6017 10.4348 14.6053C10.8798 14.6017 11.3209 14.5216 11.7391 14.3684V15.6842L16.5913 17.5526C17.0836 17.7443 17.5068 18.082 17.8049 18.5213C18.103 18.9606 18.2619 19.4808 18.2609 20.0132V22.3684ZM27.3913 22.3684H20.8696V20.1974C20.864 19.2718 20.6165 18.3641 20.1522 17.5658L21.5217 17.0395V15.8816C21.693 15.9212 21.8678 15.9432 22.0435 15.9474H22.3043C22.48 15.9432 22.6548 15.9212 22.8261 15.8816V17.0395L26.1261 18.3553C26.5046 18.4902 26.8328 18.7394 27.0661 19.0689C27.2994 19.3985 27.4266 19.7924 27.4304 20.1974V22.3684H27.3913Z" fill="#2D2D2D"/>
</svg>
