<svg width="11" height="11" viewBox="0 0 11 11" fill="none" xmlns="http://www.w3.org/2000/svg">
<path d="M5.49999 6.41667C5.49999 5.5 6.22233 5.34659 6.47106 5.09848C6.72059 4.84956 6.87499 4.50531 6.87499 4.125C6.87499 3.36561 6.25938 2.75 5.49999 2.75C5.08936 2.75 4.72078 2.93 4.46883 3.2154C4.35233 3.34737 4.26077 3.50187 4.20152 3.67153" stroke="#2D2D2D" stroke-opacity="0.3" stroke-linecap="round"/>
<path fill-rule="evenodd" clip-rule="evenodd" d="M5.50001 8.24998C5.75314 8.24998 5.95834 8.04478 5.95834 7.79165C5.95834 7.53852 5.75314 7.33331 5.50001 7.33331C5.24687 7.33331 5.04167 7.53852 5.04167 7.79165C5.04167 8.04478 5.24687 8.24998 5.50001 8.24998Z" fill="#2D2D2D" fill-opacity="0.3"/>
<path fill-rule="evenodd" clip-rule="evenodd" d="M5.50001 10.0834C8.03131 10.0834 10.0833 8.03133 10.0833 5.50002C10.0833 2.96872 8.03131 0.916687 5.50001 0.916687C2.9687 0.916687 0.916672 2.96872 0.916672 5.50002C0.916672 8.03133 2.9687 10.0834 5.50001 10.0834Z" stroke="#2D2D2D" stroke-opacity="0.3"/>
</svg>
