<svg width="41" height="24" viewBox="0 0 41 24" fill="none" xmlns="http://www.w3.org/2000/svg">
<path d="M20.058 0L19.6569 0.121718L3.64131 5.48759L0 6.68813L2.12047 7.36719V18.5781C1.35556 19.0227 0.839219 19.8337 0.839219 20.7819C0.839219 21.4615 1.1092 22.1133 1.58976 22.5938C2.07032 23.0744 2.7221 23.3444 3.40172 23.3444C4.08134 23.3444 4.73312 23.0744 5.21368 22.5938C5.69424 22.1133 5.96422 21.4615 5.96422 20.7819C5.96422 19.8337 5.44787 19.0227 4.68297 18.5781V8.25125L7.24547 9.09047V15.6569C7.24547 16.7075 7.88609 17.5787 8.64716 18.1809C9.40822 18.7793 10.3538 19.2021 11.489 19.5813C13.7619 20.3373 16.7575 20.7819 20.058 20.7819C23.3585 20.7819 26.354 20.3386 28.627 19.5801C29.7622 19.2021 30.7077 18.7793 31.4688 18.1797C32.2298 17.5788 32.8705 16.7075 32.8705 15.6569V9.09047L36.4746 7.88866L40.1159 6.68813L36.4733 5.48631L20.4577 0.121718L20.058 0ZM20.058 2.68422L32.0697 6.68813L20.058 10.692L8.04625 6.68813L20.058 2.68422ZM9.80797 9.97197L19.6582 13.2545L20.058 13.375L20.459 13.2533L30.308 9.97069V15.6569C30.308 15.6697 30.3131 15.8183 29.9069 16.1373C29.5021 16.4577 28.7756 16.8612 27.8249 17.179C25.9261 17.8107 23.1266 18.2194 20.058 18.2194C16.9894 18.2194 14.1898 17.8119 12.2897 17.1777C11.3416 16.8612 10.6139 16.4564 10.209 16.1373C9.80156 15.817 9.80797 15.6697 9.80797 15.6569V9.97069V9.97197Z" fill="#2D2D2D"/>
</svg>
