<svg width="27" height="24" viewBox="0 0 27 24" fill="none" xmlns="http://www.w3.org/2000/svg">
<path d="M27 8.60087L14.8 0.347541C14.4679 0.121111 14.0753 0 13.6733 0C13.2714 0 12.8788 0.121111 12.5467 0.347541L0.333328 8.60087L1.74666 10.6675L2.99999 9.82754V22.6675C2.99999 23.0212 3.14047 23.3603 3.39052 23.6104C3.64057 23.8604 3.97971 24.0009 4.33333 24.0009H12.3333V17.3342H15V24.0009H23C23.3536 24.0009 23.6928 23.8604 23.9428 23.6104C24.1929 23.3603 24.3333 23.0212 24.3333 22.6675V9.82754L25.5867 10.6675L27 8.60087ZM21.6667 21.3342H17.6667V16.0009C17.6667 15.6473 17.5262 15.3081 17.2761 15.0581C17.0261 14.808 16.6869 14.6675 16.3333 14.6675H11C10.6464 14.6675 10.3072 14.808 10.0572 15.0581C9.80714 15.3081 9.66666 15.6473 9.66666 16.0009V21.3342H5.66666V7.85421L13.6667 2.52087L21.6667 7.85421V21.3342Z" fill="#007BFF"/>
</svg>
