<svg width="48" height="48" viewBox="0 0 48 48" fill="none" xmlns="http://www.w3.org/2000/svg">
<path d="M39.3315 5.55111C39.3022 5.51823 39.2681 5.49326 39.2322 5.46708C37.7179 4.22011 36.0472 3.15701 34.2559 2.30702C34.226 2.29119 34.1974 2.27658 34.1652 2.26562C31.0757 0.815283 27.6319 0 24 0C20.1696 0 16.3598 0.924271 12.9812 2.67357C12.6829 2.82822 12.5659 3.19537 12.7206 3.49433C12.8753 3.79329 13.2424 3.90958 13.5414 3.75493C16.4725 2.237 19.6222 1.40041 22.9162 1.24941V4.17992C21.313 5.10358 20.2286 6.83157 20.2286 8.81102C20.2286 11.7586 22.6264 14.1569 25.5745 14.1569C28.5227 14.1569 30.9205 11.7586 30.9205 8.81102C30.9205 6.80174 29.805 5.0494 28.1623 4.13669V1.6056C29.9798 1.94231 31.7217 2.49578 33.3614 3.23799V9.89421C33.3614 10.1152 33.4808 10.3186 33.6738 10.4264C33.7663 10.4775 33.868 10.5031 33.9703 10.5031C34.0817 10.5031 34.1926 10.4726 34.29 10.4124L36.2883 9.17756L38.5874 10.4294C38.7762 10.5311 39.0051 10.5274 39.1896 10.4178C39.3747 10.3082 39.4873 10.1091 39.4873 9.89421V7.31258C41.4887 9.17147 43.1546 11.3847 44.3882 13.8519H29.833C29.4963 13.8519 29.2241 14.1247 29.2241 14.4608V28.3632H28.4204C28.0837 28.3632 27.8116 28.6354 27.8116 28.9721V31.4076C27.8116 31.7443 28.0837 32.0164 28.4204 32.0164H45.3222C43.666 36.4058 40.6929 40.1528 36.8856 42.7746L37.1675 39.5257C37.1675 38.8279 36.7699 38.227 36.1927 37.9195C36.5599 37.4951 36.7851 37.019 36.8552 36.4904C37.0847 34.757 35.5272 33.2171 35.4614 33.1532C35.2727 32.9693 34.9877 32.9267 34.7545 33.0497C33.6513 33.6257 33.0217 34.3965 32.8841 35.3403C32.7307 36.3888 33.2506 37.3794 33.7048 38.0199C33.2232 38.3536 32.9066 38.9192 32.9078 39.5787L33.3602 44.762C32.5955 45.1078 31.8094 45.4147 31.0027 45.6765V33.8437C31.0027 33.507 30.7305 33.2348 30.3938 33.2348H24.9036C24.5675 33.2348 24.2947 33.507 24.2947 33.8437V46.7743C24.1961 46.7762 24.0992 46.7822 24.0006 46.7822C15.9294 46.7822 8.8305 42.5597 4.78271 36.2116C5.11211 36.2329 5.4476 36.2469 5.79161 36.2469C7.35277 36.2463 9.05274 36.0198 10.8276 35.4383V37.2929C9.97153 37.6211 9.35962 38.4449 9.35962 39.4143V39.8155C9.35962 41.071 10.3813 42.0915 11.6368 42.0915C12.8923 42.0915 13.9134 41.0704 13.9134 39.8155V39.4143C13.9134 38.2988 13.106 37.3721 12.046 37.1791V34.989C12.7821 34.6827 13.5292 34.3125 14.2818 33.8674C14.4669 33.7572 14.5807 33.5581 14.5807 33.3432V26.9421L17.9837 25.2123C18.1871 25.1088 18.3155 24.8999 18.3168 24.6716C18.3174 24.4433 18.1907 24.2338 17.9886 24.1285L16.6892 23.4538C18.2309 23.3406 19.3914 23.5178 19.4073 23.5202C19.5832 23.547 19.7628 23.4977 19.8986 23.382C20.0344 23.2663 20.1123 23.097 20.1123 22.9192V10.3813C20.1123 10.0848 19.898 9.83088 19.6058 9.78096C16.2764 9.21227 11.5266 12.169 10.0623 13.1505C8.82076 11.8207 7.22003 11.006 5.64183 10.5134C6.60507 9.20192 7.712 7.986 8.95471 6.89185C9.2074 6.66961 9.23175 6.2848 9.00951 6.03273C8.78727 5.78065 8.40307 5.75508 8.15039 5.97793C2.97009 10.5372 0 17.1057 0 24C0 37.2333 10.7667 48 24 48C37.2333 48 48 37.2333 48 24C48 16.5912 44.6238 9.95753 39.3315 5.55111ZM29.7027 8.81102C29.7027 11.0876 27.8505 12.9392 25.5745 12.9392C23.2986 12.9392 21.4464 11.087 21.4464 8.81102C21.4464 6.53505 23.2986 4.68285 25.5745 4.68285C27.8505 4.68285 29.7027 6.53444 29.7027 8.81102ZM26.9445 3.64959C26.5061 3.5333 26.0489 3.4651 25.5745 3.4651C25.0753 3.4651 24.593 3.53939 24.134 3.66786V1.2214C25.0862 1.22688 26.0227 1.29508 26.9445 1.41442V3.64959ZM38.2708 8.87008L36.5605 7.93911C36.3681 7.83499 36.1349 7.84108 35.9492 7.95616L34.5792 8.80311V3.83286C35.8901 4.52333 37.1255 5.33739 38.2708 6.25984V8.87008ZM12.695 39.4137V39.8149C12.695 40.3982 12.2201 40.8731 11.6362 40.8731C11.0523 40.8731 10.5768 40.3982 10.5768 39.8149V39.4137C10.5768 38.8297 11.0517 38.3548 11.6362 38.3548C12.2201 38.3548 12.695 38.8297 12.695 39.4137ZM4.03866 34.967C3.0669 33.2056 2.32529 31.3016 1.84611 29.2966L5.32461 31.3339C5.41959 31.3893 5.52614 31.4173 5.63209 31.4173C5.72646 31.4173 5.82145 31.3954 5.90791 31.3515L10.827 28.8515V34.1591C8.33732 35.0565 6.01629 35.1875 4.03866 34.967ZM13.3624 32.9919C12.9197 33.2421 12.4807 33.4631 12.0448 33.6622V28.2317L13.3624 27.5613V32.9919ZM11.5869 27.0973L5.95905 24.067C5.66314 23.9074 5.29355 24.0183 5.13464 24.3142C4.97572 24.6101 5.08593 24.9797 5.38184 25.1386L10.2656 27.7683L5.65279 30.1137L1.52219 27.6946C1.32491 26.4909 1.21775 25.2573 1.21775 23.9994C1.21775 22.9619 1.29629 21.9341 1.43512 20.9185L5.61078 19.073L16.3745 24.6631L11.5869 27.0973ZM18.8934 10.9287V22.2404C18.0379 22.1728 16.5035 22.1381 14.8261 22.4869L10.5768 20.2798V14.2726C11.6496 13.5462 15.9117 10.8008 18.8934 10.9287ZM9.35901 14.174V19.6478L5.91278 17.8583C5.74838 17.773 5.55476 17.767 5.3861 17.8418L1.67745 19.4809C2.24918 16.6606 3.34637 13.9767 4.91179 11.5723C6.51861 12.0204 8.17901 12.8046 9.35901 14.174ZM34.0884 35.5144C34.1518 35.0882 34.4282 34.7052 34.9116 34.3722C35.252 34.8057 35.747 35.5826 35.6478 36.3321C35.5893 36.7699 35.3196 37.1669 34.8434 37.5164C34.4586 37.0263 33.9825 36.2274 34.0884 35.5144ZM34.1225 39.5263C34.1225 39.1902 34.3953 38.9174 34.7314 38.9174H35.3403C35.6764 38.9174 35.9492 39.1902 35.9516 39.4733L35.5936 43.6003C35.2453 43.8073 34.8903 44.004 34.5305 44.1927L34.1225 39.5263ZM29.7843 34.4525V46.0358C28.9301 46.2604 28.0551 46.4328 27.1643 46.557C27.2776 46.4461 27.3488 46.2927 27.3488 46.1222C27.3488 45.7855 27.0766 45.5134 26.7399 45.5134H25.5118V44.8028H27.6484C27.9851 44.8028 28.2572 44.5306 28.2572 44.1939C28.2572 43.8572 27.9851 43.5851 27.6484 43.5851H25.5118V43.0779H26.7399C27.0766 43.0779 27.3488 42.8057 27.3488 42.469C27.3488 42.1323 27.0766 41.8601 26.7399 41.8601H25.5118V41.1496H27.6484C27.9851 41.1496 28.2572 40.8774 28.2572 40.5407C28.2572 40.204 27.9851 39.9318 27.6484 39.9318H25.5118V39.3229H26.7399C27.0766 39.3229 27.3488 39.0508 27.3488 38.7141C27.3488 38.3773 27.0766 38.1052 26.7399 38.1052H25.5118V37.3952H27.6484C27.9851 37.3952 28.2572 37.1231 28.2572 36.7864C28.2572 36.4497 27.9851 36.1775 27.6484 36.1775H25.5118V34.4525H29.7843ZM30.4419 15.0696H44.9568C46.1308 17.8132 46.7822 20.8314 46.7822 24C46.7822 25.4923 46.6337 26.9506 46.3585 28.3638H43.0785V26.8416C43.0785 26.5049 42.8063 26.2327 42.4696 26.2327H37.5986C37.2619 26.2327 36.9897 26.5049 36.9897 26.8416V28.3638H30.4419V15.0696ZM38.2075 28.3638V27.4505H41.8607V28.3638H38.2075ZM29.0293 30.7993V29.5816H29.833H46.0881C45.984 29.9919 45.8714 30.3981 45.7453 30.7993H29.0293Z" fill="#2D2D2D"/>
<path d="M10.1562 5.75272C10.2816 5.75272 10.4076 5.71436 10.516 5.6346C10.8795 5.36731 11.2564 5.10671 11.6369 4.86072C11.9189 4.67806 11.9998 4.30117 11.8172 4.01865C11.6351 3.73674 11.2588 3.65576 10.9751 3.83842C10.5745 4.0978 10.1769 4.3718 9.79449 4.6531C9.52354 4.8522 9.46509 5.23335 9.6648 5.5043C9.78414 5.66687 9.96863 5.75272 10.1562 5.75272Z" fill="#2D2D2D"/>
<path d="M15.4278 37.1897C15.4028 37.2518 15.3815 37.3151 15.3785 37.3845L15.1526 41.9961C15.141 42.2373 15.2719 42.4619 15.4874 42.5697C15.5739 42.6129 15.6677 42.6342 15.7608 42.6342C15.899 42.6342 16.036 42.5874 16.1475 42.4954L19.5657 39.6855C19.7873 39.5199 19.9742 39.3049 20.1045 39.0468L28.1374 23.1174C28.3572 22.682 28.3944 22.1864 28.2421 21.7231C28.0893 21.2591 27.7654 20.8834 27.3294 20.6636L26.0605 20.0237C25.8066 19.8958 25.5223 19.8276 25.2386 19.8276C24.5451 19.8276 23.9197 20.2124 23.6068 20.8323L22.6929 22.6443L15.5733 36.7635C15.5039 36.9017 15.46 37.0454 15.4278 37.1897ZM16.5049 39.2793L17.5199 39.792L16.4361 40.6834L16.5049 39.2793ZM25.2386 21.0466C25.3336 21.0466 25.4261 21.0685 25.512 21.1124L26.7808 21.7523C26.9258 21.8254 27.0341 21.9508 27.0847 22.1054C27.1358 22.2601 27.123 22.4251 27.05 22.5706L26.41 23.8389L24.0543 22.651L24.6942 21.3827C24.799 21.1751 25.0072 21.0466 25.2386 21.0466ZM16.6607 37.3115L23.5063 23.7378L25.8621 24.9264L19.0165 38.4994C18.8697 38.791 18.4941 38.9183 18.1988 38.7697L16.9305 38.1298C16.6303 37.9788 16.5097 37.611 16.6607 37.3115Z" fill="#2D2D2D"/>
<path d="M23.6201 7.86473C23.6201 8.20083 23.8929 8.47361 24.229 8.47361H26.9099C27.2466 8.47361 27.5187 8.20083 27.5187 7.86473C27.5187 7.52864 27.2466 7.25586 26.9099 7.25586H24.229C23.8929 7.25586 23.6201 7.52864 23.6201 7.86473Z" fill="#2D2D2D"/>
<path d="M26.9099 9.28516H24.229C23.8929 9.28516 23.6201 9.55793 23.6201 9.89403C23.6201 10.2301 23.8929 10.5029 24.229 10.5029H26.9099C27.2466 10.5029 27.5187 10.2301 27.5187 9.89403C27.5187 9.55793 27.2466 9.28516 26.9099 9.28516Z" fill="#2D2D2D"/>
<path d="M12.1276 16.1248C12.2402 16.1248 12.3547 16.0937 12.4564 16.028C12.4789 16.014 14.7281 14.5807 17.219 14.1892C17.5508 14.1374 17.778 13.8257 17.7262 13.4932C17.6744 13.1608 17.3639 12.9337 17.0303 12.986C14.2885 13.4165 11.8981 14.9387 11.7976 15.0032C11.5151 15.1847 11.4329 15.5616 11.6149 15.8447C11.7312 16.0261 11.9273 16.1248 12.1276 16.1248Z" fill="#2D2D2D"/>
<path d="M12.1276 18.2941C12.2402 18.2941 12.3547 18.263 12.4564 18.1973C12.4789 18.1832 14.7281 16.75 17.219 16.3585C17.5508 16.3067 17.778 15.995 17.7262 15.6625C17.6744 15.3301 17.3639 15.1036 17.0303 15.1553C14.2885 15.5858 11.8981 17.108 11.7976 17.1725C11.5151 17.354 11.4329 17.7309 11.6149 18.014C11.7312 18.1954 11.9273 18.2941 12.1276 18.2941Z" fill="#2D2D2D"/>
<path d="M17.0303 17.7976C14.2885 18.228 11.8981 19.7502 11.7976 19.8148C11.5151 19.9962 11.4329 20.3731 11.6149 20.6562C11.7312 20.8371 11.9273 20.9357 12.1276 20.9357C12.2402 20.9357 12.3547 20.9047 12.4564 20.8389C12.4789 20.8249 14.7281 19.3916 17.219 19.0001C17.5508 18.9483 17.778 18.6366 17.7262 18.3041C17.6738 17.9717 17.3639 17.7452 17.0303 17.7976Z" fill="#2D2D2D"/>
<path d="M33.5137 19.2812H44.2451C44.5818 19.2812 44.854 19.0084 44.854 18.6724C44.854 18.3363 44.5818 18.0635 44.2451 18.0635H33.5137C33.177 18.0635 32.9048 18.3363 32.9048 18.6724C32.9048 19.0084 33.177 19.2812 33.5137 19.2812Z" fill="#2D2D2D"/>
<path d="M33.5137 21.7929H44.2451C44.5818 21.7929 44.854 21.5202 44.854 21.1841C44.854 20.848 44.5818 20.5752 44.2451 20.5752H33.5137C33.177 20.5752 32.9048 20.848 32.9048 21.1841C32.9048 21.5202 33.177 21.7929 33.5137 21.7929Z" fill="#2D2D2D"/>
<path d="M38.8797 24.3681C39.2164 24.3681 39.4885 24.0954 39.4885 23.7593C39.4885 23.4232 39.2164 23.1504 38.8797 23.1504H33.5137C33.177 23.1504 32.9048 23.4232 32.9048 23.7593C32.9048 24.0954 33.177 24.3681 33.5137 24.3681H38.8797Z" fill="#2D2D2D"/>
</svg>
