<svg width="39" height="39" viewBox="0 0 39 39" fill="none" xmlns="http://www.w3.org/2000/svg">
<path d="M31.9568 4.51028C31.9331 4.48356 31.9054 4.46328 31.8762 4.442C30.6458 3.42884 29.2883 2.56507 27.8329 1.87446C27.8087 1.8616 27.7854 1.84972 27.7592 1.84082C25.249 0.662417 22.4509 0 19.5 0C16.3878 0 13.2924 0.75097 10.5472 2.17227C10.3048 2.29793 10.2098 2.59624 10.3355 2.83914C10.4611 3.08205 10.7595 3.17654 11.0024 3.05088C13.3839 1.81757 15.943 1.13783 18.6194 1.01515V3.39619C17.3168 4.14666 16.4358 5.55065 16.4358 7.15895C16.4358 9.55385 18.3839 11.5025 20.7793 11.5025C23.1747 11.5025 25.1229 9.55385 25.1229 7.15895C25.1229 5.52641 24.2166 4.10263 22.8818 3.36106V1.30455C24.3586 1.57813 25.7739 2.02782 27.1062 2.63087V8.03904C27.1062 8.21862 27.2031 8.38386 27.36 8.47142C27.4352 8.51298 27.5178 8.53375 27.6009 8.53375C27.6914 8.53375 27.7815 8.50902 27.8606 8.46004L29.4842 7.45677L31.3523 8.47389C31.5056 8.55651 31.6916 8.55354 31.8415 8.4645C31.9919 8.37545 32.0835 8.21368 32.0835 8.03904V5.94147C33.7096 7.45182 35.0631 9.2501 36.0654 11.2547H24.2393C23.9658 11.2547 23.7446 11.4763 23.7446 11.7494V23.0451H23.0916C22.818 23.0451 22.5969 23.2662 22.5969 23.5398V25.5186C22.5969 25.7922 22.818 26.0134 23.0916 26.0134H36.8243C35.4786 29.5797 33.063 32.6242 29.9696 34.7544L30.1986 32.1146C30.1986 31.5477 29.8756 31.0594 29.4066 30.8096C29.7049 30.4648 29.8879 30.0779 29.9448 29.6485C30.1313 28.24 28.8659 26.9889 28.8124 26.937C28.6591 26.7876 28.4275 26.7529 28.2381 26.8529C27.3417 27.3209 26.8301 27.9472 26.7183 28.714C26.5937 29.5659 27.0161 30.3708 27.3852 30.8912C26.9939 31.1623 26.7366 31.6219 26.7376 32.1577L27.1052 36.3691C26.4838 36.6501 25.8452 36.8995 25.1897 37.1122V27.498C25.1897 27.2244 24.9685 27.0033 24.695 27.0033H20.2342C19.9611 27.0033 19.7394 27.2244 19.7394 27.498V38.0041C19.6593 38.0056 19.5806 38.0106 19.5005 38.0106C12.9426 38.0106 7.17478 34.5798 3.88595 29.4219C4.15359 29.4392 4.42617 29.4506 4.70569 29.4506C5.97412 29.4501 7.35535 29.2661 8.79743 28.7936V30.3005C8.10187 30.5672 7.60469 31.2365 7.60469 32.0241V32.3501C7.60469 33.3702 8.43481 34.1993 9.45491 34.1993C10.475 34.1993 11.3046 33.3697 11.3046 32.3501V32.0241C11.3046 31.1178 10.6486 30.3648 9.78735 30.208V28.4285C10.3855 28.1797 10.9925 27.8789 11.6039 27.5173C11.7543 27.4277 11.8468 27.266 11.8468 27.0913V21.8904L14.6118 20.485C14.777 20.4009 14.8814 20.2312 14.8824 20.0457C14.8829 19.8601 14.78 19.69 14.6157 19.6044L13.56 19.0562C14.8126 18.9642 15.7555 19.1082 15.7684 19.1102C15.9114 19.1319 16.0573 19.0919 16.1676 18.9979C16.278 18.9039 16.3413 18.7663 16.3413 18.6219V8.43481C16.3413 8.19389 16.1671 7.98759 15.9297 7.94703C13.2246 7.48497 9.36536 9.88728 8.17558 10.6848C7.16687 9.60431 5.86628 8.94239 4.58399 8.54216C5.36662 7.47656 6.266 6.48862 7.27571 5.59963C7.48101 5.41906 7.5008 5.1064 7.32023 4.90159C7.13966 4.69678 6.8275 4.676 6.62219 4.85707C2.4132 8.56146 0 13.8984 0 19.5C0 30.252 8.74796 39 19.5 39C30.252 39 39 30.252 39 19.5C39 13.4804 36.2568 8.09049 31.9568 4.51028ZM24.1335 7.15895C24.1335 9.00868 22.6285 10.5131 20.7793 10.5131C18.9301 10.5131 17.4252 9.00818 17.4252 7.15895C17.4252 5.30973 18.9301 3.80482 20.7793 3.80482C22.6285 3.80482 24.1335 5.30923 24.1335 7.15895ZM21.8924 2.96529C21.5362 2.8708 21.1647 2.8154 20.7793 2.8154C20.3737 2.8154 19.9818 2.87575 19.6088 2.98014V0.992389C20.3826 0.996841 21.1434 1.05225 21.8924 1.14921V2.96529ZM31.095 7.20694L29.7054 6.45053C29.5491 6.36593 29.3596 6.37088 29.2087 6.46438L28.0956 7.15252V3.1142C29.1607 3.6752 30.1645 4.33663 31.095 5.08612V7.20694ZM10.3147 32.0236V32.3496C10.3147 32.8235 9.92884 33.2094 9.45441 33.2094C8.97998 33.2094 8.59361 32.8235 8.59361 32.3496V32.0236C8.59361 31.5492 8.97949 31.1633 9.45441 31.1633C9.92884 31.1633 10.3147 31.5492 10.3147 32.0236ZM3.28141 28.4107C2.49186 26.9795 1.8893 25.4326 1.49996 23.8035L4.32624 25.4588C4.40342 25.5038 4.48999 25.5266 4.57607 25.5266C4.65275 25.5266 4.72993 25.5088 4.80017 25.4731L8.79694 23.4419V27.7542C6.77407 28.4834 4.88823 28.5898 3.28141 28.4107ZM10.8569 26.8059C10.4973 27.0092 10.1406 27.1888 9.78636 27.3506V22.9382L10.8569 22.3936V26.8059ZM9.41434 22.0166L4.84173 19.5544C4.6013 19.4248 4.30101 19.5148 4.17189 19.7553C4.04277 19.9957 4.13232 20.296 4.37275 20.4251L8.34082 22.5618L4.59289 24.4674L1.23678 22.5019C1.07649 21.5239 0.989421 20.5216 0.989421 19.4995C0.989421 18.6565 1.05324 17.8214 1.16603 16.9963L4.55876 15.4968L13.3042 20.0387L9.41434 22.0166ZM15.3509 8.87956V18.0703C14.6558 18.0154 13.4091 17.9872 12.0462 18.2706L8.59361 16.4773V11.5965C9.46529 11.0063 12.9283 8.77567 15.3509 8.87956ZM7.60419 11.5164V15.9638L4.80413 14.5099C4.67056 14.4406 4.51324 14.4357 4.37621 14.4965L1.36293 15.8283C1.82746 13.5368 2.71893 11.3561 3.99083 9.40247C5.29637 9.76657 6.64545 10.4038 7.60419 11.5164ZM27.6969 28.8555C27.7483 28.5092 27.9729 28.198 28.3657 27.9274C28.6422 28.2796 29.0444 28.9109 28.9638 29.5199C28.9163 29.8756 28.6972 30.1981 28.3103 30.4821C27.9976 30.0838 27.6108 29.4348 27.6969 28.8555ZM27.7246 32.1151C27.7246 31.842 27.9462 31.6204 28.2193 31.6204H28.714C28.9871 31.6204 29.2087 31.842 29.2107 32.0721L28.9198 35.4252C28.6368 35.5934 28.3484 35.7532 28.056 35.9066L27.7246 32.1151ZM24.1997 27.9927V37.4041C23.5057 37.5866 22.7948 37.7266 22.071 37.8275C22.163 37.7375 22.2209 37.6128 22.2209 37.4743C22.2209 37.2007 21.9998 36.9796 21.7262 36.9796H20.7284V36.4023H22.4643C22.7379 36.4023 22.959 36.1811 22.959 35.9076C22.959 35.634 22.7379 35.4129 22.4643 35.4129H20.7284V35.0008H21.7262C21.9998 35.0008 22.2209 34.7796 22.2209 34.5061C22.2209 34.2325 21.9998 34.0113 21.7262 34.0113H20.7284V33.434H22.4643C22.7379 33.434 22.959 33.2129 22.959 32.9393C22.959 32.6657 22.7379 32.4446 22.4643 32.4446H20.7284V31.9499H21.7262C21.9998 31.9499 22.2209 31.7287 22.2209 31.4552C22.2209 31.1816 21.9998 30.9605 21.7262 30.9605H20.7284V30.3836H22.4643C22.7379 30.3836 22.959 30.1625 22.959 29.8889C22.959 29.6153 22.7379 29.3942 22.4643 29.3942H20.7284V27.9927H24.1997ZM24.734 12.2441H36.5274C37.4812 14.4732 38.0106 16.9255 38.0106 19.5C38.0106 20.7125 37.8899 21.8974 37.6663 23.0456H35.0013V21.8088C35.0013 21.5352 34.7801 21.3141 34.5065 21.3141H30.5489C30.2753 21.3141 30.0542 21.5352 30.0542 21.8088V23.0456H24.734V12.2441ZM31.0436 23.0456V22.3035H34.0118V23.0456H31.0436ZM23.5863 25.0244V24.035H24.2393H37.4466C37.362 24.3684 37.2705 24.6984 37.1681 25.0244H23.5863Z" fill="white"/>
<path d="M8.25174 4.67406C8.35366 4.67406 8.45606 4.64289 8.54412 4.57808C8.83946 4.36091 9.14569 4.14917 9.45488 3.94931C9.68393 3.80089 9.74973 3.49467 9.60131 3.26512C9.4534 3.03607 9.14767 2.97027 8.91713 3.11869C8.59161 3.32943 8.26857 3.55205 7.95789 3.78061C7.73774 3.94238 7.69025 4.25207 7.85251 4.47222C7.94948 4.6043 8.09937 4.67406 8.25174 4.67406Z" fill="white"/>
<path d="M12.535 30.2164C12.5147 30.2669 12.4974 30.3183 12.4949 30.3747L12.3114 34.1216C12.302 34.3176 12.4083 34.5001 12.5835 34.5877C12.6537 34.6228 12.7299 34.6401 12.8056 34.6401C12.9179 34.6401 13.0292 34.602 13.1197 34.5273L15.897 32.2442C16.0771 32.1097 16.229 31.935 16.3348 31.7253L22.8616 18.7827C23.0401 18.4289 23.0703 18.0262 22.9466 17.6498C22.8225 17.2728 22.5593 16.9676 22.2051 16.789L21.1741 16.269C20.9678 16.1651 20.7368 16.1097 20.5062 16.1097C19.9428 16.1097 19.4347 16.4224 19.1804 16.926L18.4379 18.3983L12.6532 29.8701C12.5968 29.9824 12.5612 30.0992 12.535 30.2164ZM13.4101 31.9143L14.2348 32.3308L13.3542 33.0551L13.4101 31.9143ZM20.5062 17.1002C20.5834 17.1002 20.6586 17.118 20.7284 17.1536L21.7593 17.6735C21.8771 17.7329 21.9651 17.8348 22.0062 17.9605C22.0478 18.0861 22.0374 18.2202 21.978 18.3384L21.4581 19.3689L19.544 18.4037L20.064 17.3732C20.1491 17.2045 20.3183 17.1002 20.5062 17.1002ZM13.5368 30.3153L19.0988 19.2868L21.0128 20.2524L15.4508 31.2805C15.3316 31.5175 15.0263 31.6209 14.7864 31.5002L13.7559 30.9802C13.512 30.8576 13.4141 30.5587 13.5368 30.3153Z" fill="white"/>
<path d="M19.1914 6.39022C19.1914 6.6633 19.413 6.88493 19.6861 6.88493H21.8643C22.1379 6.88493 22.359 6.6633 22.359 6.39022C22.359 6.11714 22.1379 5.89551 21.8643 5.89551H19.6861C19.413 5.89551 19.1914 6.11714 19.1914 6.39022Z" fill="white"/>
<path d="M21.8643 7.54431H19.6861C19.413 7.54431 19.1914 7.76594 19.1914 8.03902C19.1914 8.3121 19.413 8.53373 19.6861 8.53373H21.8643C22.1379 8.53373 22.359 8.3121 22.359 8.03902C22.359 7.76594 22.1379 7.54431 21.8643 7.54431Z" fill="white"/>
<path d="M9.85364 13.1014C9.94516 13.1014 10.0382 13.0761 10.1208 13.0227C10.1391 13.0113 11.9666 11.8468 13.9904 11.5287C14.26 11.4866 14.4446 11.2333 14.4025 10.9632C14.3605 10.6931 14.1082 10.5086 13.8371 10.5511C11.6094 10.9009 9.66714 12.1377 9.58551 12.1901C9.35596 12.3375 9.28918 12.6438 9.4371 12.8738C9.53159 13.0212 9.69088 13.1014 9.85364 13.1014Z" fill="white"/>
<path d="M9.85364 14.8641C9.94516 14.8641 10.0382 14.8388 10.1208 14.7854C10.1391 14.774 11.9666 13.6095 13.9904 13.2914C14.26 13.2493 14.4446 12.9961 14.4025 12.7259C14.3605 12.4558 14.1082 12.2718 13.8371 12.3138C11.6094 12.6636 9.66714 13.9004 9.58551 13.9528C9.35596 14.1002 9.28918 14.4065 9.4371 14.6365C9.53159 14.7839 9.69088 14.8641 9.85364 14.8641Z" fill="white"/>
<path d="M13.8371 14.4605C11.6094 14.8102 9.66714 16.047 9.58551 16.0994C9.35596 16.2469 9.28918 16.5531 9.4371 16.7831C9.53159 16.9301 9.69088 17.0102 9.85364 17.0102C9.94516 17.0102 10.0382 16.985 10.1208 16.9315C10.1391 16.9202 11.9666 15.7556 13.9904 15.4375C14.26 15.3955 14.4446 15.1422 14.4025 14.8721C14.36 14.6019 14.1082 14.4179 13.8371 14.4605Z" fill="white"/>
<path d="M27.2298 15.6661H35.9491C36.2227 15.6661 36.4438 15.4444 36.4438 15.1713C36.4438 14.8983 36.2227 14.6766 35.9491 14.6766H27.2298C26.9562 14.6766 26.7351 14.8983 26.7351 15.1713C26.7351 15.4444 26.9562 15.6661 27.2298 15.6661Z" fill="white"/>
<path d="M27.2298 17.7067H35.9491C36.2227 17.7067 36.4438 17.4851 36.4438 17.212C36.4438 16.9389 36.2227 16.7173 35.9491 16.7173H27.2298C26.9562 16.7173 26.7351 16.9389 26.7351 17.212C26.7351 17.4851 26.9562 17.7067 27.2298 17.7067Z" fill="white"/>
<path d="M31.5897 19.7994C31.8633 19.7994 32.0844 19.5777 32.0844 19.3046C32.0844 19.0316 31.8633 18.8099 31.5897 18.8099H27.2298C26.9562 18.8099 26.7351 19.0316 26.7351 19.3046C26.7351 19.5777 26.9562 19.7994 27.2298 19.7994H31.5897Z" fill="white"/>
</svg>
